<?xml version="1.0" standalone="no"?>
<!DOCTYPE svg PUBLIC "-//W3C//DTD SVG 20010904//EN"
 "http://www.w3.org/TR/2001/REC-SVG-20010904/DTD/svg10.dtd">
<svg version="1.0" xmlns="http://www.w3.org/2000/svg"
 width="1080.000000pt" height="1080.000000pt" viewBox="0 0 1080.000000 1080.000000"
 preserveAspectRatio="xMidYMid meet">
<metadata>
Created by potrace 1.14, written by Peter Selinger 2001-2017
</metadata>
<g transform="translate(0.000000,1080.000000) scale(0.100000,-0.100000)"
fill="#000000" stroke="none">
<path d="M2698 9228 c-2 -7 -54 -96 -116 -198 -63 -102 -118 -192 -123 -200
-4 -8 -42 -69 -82 -135 -98 -159 -280 -457 -385 -630 -47 -77 -100 -162 -117
-190 -17 -27 -65 -105 -106 -172 -41 -68 -87 -144 -103 -170 -36 -58 -243
-467 -275 -543 -13 -30 -34 -77 -46 -105 -44 -99 -176 -450 -190 -505 -1 -3
-5 -12 -8 -20 -23 -56 -145 -507 -161 -595 -3 -16 -14 -77 -25 -135 -19 -106
-27 -157 -37 -240 -3 -25 -7 -55 -9 -68 -26 -154 -26 -588 -1 -782 15 -113 22
-154 37 -220 6 -25 12 -52 14 -60 39 -187 155 -464 272 -648 90 -141 254 -329
382 -436 229 -192 552 -351 876 -432 17 -4 35 -8 40 -10 47 -11 202 -41 255
-48 47 -7 99 -13 190 -21 68 -6 296 -7 330 -1 14 2 59 7 100 11 81 7 108 10
215 26 132 20 149 23 261 50 113 27 238 71 353 125 52 25 94 43 95 42 2 -4 99
-195 253 -498 66 -129 185 -362 264 -516 l143 -282 100 43 c323 136 858 409
1105 562 20 13 43 26 51 30 21 9 80 46 310 193 80 51 147 96 150 99 3 3 25 19
50 35 48 32 300 218 322 239 7 6 35 30 61 51 27 21 70 58 95 82 26 24 58 47
72 51 14 3 28 11 32 16 3 6 51 21 105 34 143 33 140 33 258 70 566 178 1001
532 1217 990 142 302 198 641 165 998 -12 126 -45 313 -71 398 -8 26 -12 47
-10 47 2 0 -4 19 -12 43 -9 23 -17 49 -19 58 -7 35 -90 259 -127 347 -22 51
-39 95 -37 97 2 2 20 6 39 9 19 3 44 7 55 10 11 2 42 7 68 10 27 4 58 9 70 12
12 2 39 6 62 9 22 3 47 8 55 10 8 2 33 6 55 10 22 3 175 28 340 55 165 27 310
51 322 53 12 2 24 5 27 8 2 2 -5 54 -15 114 -11 61 -33 189 -50 285 -16 96
-32 186 -34 200 -3 14 -9 52 -15 85 -5 33 -12 70 -14 81 -2 12 -7 39 -10 60
-4 22 -8 46 -11 54 -2 8 -6 33 -10 55 -3 22 -10 65 -15 95 -5 30 -12 71 -15
90 -6 39 -23 134 -29 166 -6 29 -17 95 -20 119 -2 11 -6 34 -9 50 -4 17 -8 41
-11 55 -2 14 -14 87 -26 163 l-23 139 -50 -6 c-27 -4 -68 -11 -90 -16 -41 -9
-70 -14 -132 -25 -16 -3 -43 -8 -60 -12 -16 -3 -39 -7 -50 -9 -11 -2 -83 -15
-160 -29 -77 -14 -162 -30 -190 -35 -27 -5 -61 -11 -75 -14 -14 -3 -65 -12
-115 -20 -49 -9 -101 -18 -115 -21 -37 -8 -190 -35 -230 -41 -19 -3 -42 -7
-50 -9 -8 -2 -31 -7 -50 -10 -19 -3 -120 -21 -225 -40 -104 -19 -201 -36 -215
-39 -14 -2 -79 -14 -145 -26 -66 -12 -131 -24 -145 -26 -49 -8 -85 -14 -110
-19 -14 -3 -50 -9 -80 -15 -30 -5 -80 -14 -110 -19 -30 -5 -71 -12 -90 -16
-80 -13 -146 -25 -170 -30 -14 -3 -41 -8 -60 -11 -19 -3 -42 -7 -50 -9 -8 -2
-33 -7 -55 -10 -23 -3 -52 -7 -65 -10 -36 -7 -239 -43 -280 -50 -53 -9 -318
-55 -376 -66 l-51 -10 9 -47 c5 -26 11 -63 14 -82 2 -19 7 -46 10 -60 2 -14 7
-38 9 -55 9 -55 15 -90 20 -115 3 -14 7 -38 9 -55 5 -34 12 -75 26 -154 6 -30
10 -57 10 -60 0 -3 -39 -6 -87 -6 -81 0 -188 -9 -238 -19 -11 -2 -51 -11 -89
-20 -38 -9 -70 -15 -72 -13 -2 1 -6 25 -9 52 -12 96 -59 255 -94 321 -12 21
-21 43 -21 47 0 5 -30 55 -66 110 -114 174 -282 323 -473 420 -80 41 -232 99
-291 111 -14 3 -36 7 -50 10 -137 31 -203 37 -380 39 -127 2 -195 -3 -347 -28
-65 -10 -207 -47 -248 -64 -11 -5 -45 -19 -75 -31 -66 -26 -218 -106 -242
-127 -9 -8 -18 -11 -21 -6 -4 7 -103 277 -150 408 -30 84 -228 632 -246 680
-11 28 -38 102 -61 165 -23 63 -60 165 -82 225 -22 61 -41 116 -43 123 -3 6
-9 12 -14 12 -5 0 -11 -6 -13 -12z"/>
</g>
</svg>
