<?xml version="1.0" encoding="utf-8"?>
<!-- Generator: Adobe Illustrator 23.0.3, SVG Export Plug-In . SVG Version: 6.00 Build 0)  -->
<svg version="1.1" id="Layer_1" xmlns="http://www.w3.org/2000/svg" xmlns:xlink="http://www.w3.org/1999/xlink" x="0px" y="0px"
	 viewBox="0 0 60 49" style="enable-background:new 0 0 60 49;" xml:space="preserve">
<style type="text/css">
	.st0{fill:#B7E5DE;}
	.st1{fill:#4ABEAD;}
	.st2{fill:#F04D26;}
</style>
<g>
	<g>
		<path class="st0" d="M14.2,6.43c0-2.46,2-4.46,4.47-4.47H16.7c-2.46,0-4.46,2-4.47,4.47v32.18c0.09-0.1,0.18-0.2,0.28-0.3
			c0.49-0.49,1.06-0.89,1.68-1.18L14.2,6.43L14.2,6.43z"/>
		<path class="st0" d="M20.21,1.96h1.96v34.6h-1.96V1.96z"/>
		<path class="st1" d="M10.77,6.43v36.13c0,3.28,2.66,5.93,5.93,5.93h31.78c0.41,0,0.73-0.33,0.73-0.73V37.46
			c0.01-0.05,0.02-0.11,0.02-0.16V1.23c0-0.41-0.33-0.73-0.73-0.73H16.7C13.43,0.5,10.77,3.15,10.77,6.43z M12.24,6.43
			c0-2.46,2-4.46,4.47-4.47h2.04v34.6h-1.98c-1.59-0.01-3.13,0.62-4.25,1.75c-0.1,0.1-0.19,0.2-0.28,0.3
			C12.24,38.61,12.24,6.43,12.24,6.43z M16.7,47.03c-1.61,0-3.1-0.87-3.9-2.27s-0.79-3.12,0.03-4.51c0.83-1.39,2.33-2.23,3.94-2.21
			h30.98v2.01h-32c-0.41,0-0.73,0.33-0.73,0.73s0.33,0.73,0.73,0.73h32v1.64h-32c-0.41,0-0.73,0.33-0.73,0.73
			c0,0.41,0.33,0.73,0.73,0.73h32v2.41H16.7V47.03z M47.77,36.57H20.21V1.96h27.55v34.6H47.77z"/>
	</g>
	<path class="st2" d="M42.73,9.05c-1.03,0.11-2.27,0.79-3.79,2.1c-2.75,2.36-5.99,6.42-8.08,9.35c-1.52-0.24-3.13,0.41-4.08,1.6
		c-1.75,2.18-0.28,4.13-1.93,5.87c-0.29,0.3-0.18,0.8,0.2,0.96c2.69,1.15,6.14,0.43,7.75-1.27c0.99-1.04,1.52-2.58,1.25-4.02
		c2.89-2.22,6.88-5.63,9.14-8.46c1.25-1.57,1.89-2.83,1.94-3.86C45.21,9.92,44.14,8.9,42.73,9.05L42.73,9.05z M31.94,26.83
		c-1.09,1.15-3.51,1.82-5.66,1.25c1.2-1.92,0.17-3.64,1.45-5.24c1.05-1.31,3.16-1.68,4.38-0.45C33.54,23.82,32.87,25.85,31.94,26.83
		z M32.06,20.88c0.29-0.41,0.75-1.03,1.33-1.78l1.97,1.97c-0.72,0.6-1.33,1.07-1.72,1.38C33.28,21.81,32.74,21.24,32.06,20.88
		L32.06,20.88z M43.94,11.24c-0.13,2.52-5.75,7.43-7.66,9.05l-2.15-2.15c1.58-2,6.2-7.64,8.72-7.91
		C43.53,10.17,43.98,10.59,43.94,11.24z"/>
</g>
</svg>
