<?xml version="1.0" encoding="utf-8"?>
<!-- Generator: Adobe Illustrator 23.0.3, SVG Export Plug-In . SVG Version: 6.00 Build 0)  -->
<svg version="1.1" id="Layer_1" xmlns="http://www.w3.org/2000/svg" xmlns:xlink="http://www.w3.org/1999/xlink" x="0px" y="0px"
	 viewBox="0 0 60 46" style="enable-background:new 0 0 60 46;" xml:space="preserve">
<style type="text/css">
	.st0{fill:#4DFDD9;}
	.st1{fill:#4ABEAD;}
	.st2{fill:#404040;}
</style>
<g>
	<g>
		<rect x="17.36" y="5.5" class="st0" width="35" height="35"/>
		<rect x="28.68" y="5.5" class="st1" width="12.36" height="18.75"/>
		<g>
			<path class="st2" d="M24.34,16.81H9.58c-1.07,0-1.94-0.87-1.94-1.94s0.87-1.94,1.94-1.94h14.76c1.07,0,1.94,0.87,1.94,1.94
				C26.28,15.94,25.41,16.81,24.34,16.81z"/>
		</g>
		<g>
			<path class="st2" d="M24.34,23.25H9.58c-1.07,0-1.94-0.87-1.94-1.94s0.87-1.94,1.94-1.94h14.76c1.07,0,1.94,0.87,1.94,1.94
				S25.41,23.25,24.34,23.25z"/>
		</g>
		<g>
			<path class="st2" d="M24.34,29.7H9.58c-1.07,0-1.94-0.87-1.94-1.94s0.87-1.94,1.94-1.94h14.76c1.07,0,1.94,0.87,1.94,1.94
				S25.41,29.7,24.34,29.7z"/>
		</g>
	</g>
</g>
</svg>
