<?xml version="1.0" encoding="utf-8"?>
<!-- Generator: Adobe Illustrator 23.0.3, SVG Export Plug-In . SVG Version: 6.00 Build 0)  -->
<svg version="1.1" id="Layer_1" xmlns="http://www.w3.org/2000/svg" xmlns:xlink="http://www.w3.org/1999/xlink" x="0px" y="0px"
	 viewBox="0 0 60 44" style="enable-background:new 0 0 60 44;" xml:space="preserve">
<style type="text/css">
	.st0{fill:#4DFDD9;}
	.st1{fill:#E6E6E6;}
	.st2{fill:#404040;}
</style>
<g>
	<g>
		<g id="XMLID_64_">
			<path id="XMLID_994_" class="st0" d="M49.91,7.96c0-2.16-1.75-3.91-3.91-3.91H14c-2.16,0-3.91,1.75-3.91,3.91v8.87h39.82V7.96z"
				/>
			<path id="XMLID_992_" class="st1" d="M10.09,16.83v22.98c0,2.16,1.75,3.91,3.91,3.91h32c2.16,0,3.91-1.75,3.91-3.91V16.83H10.09z
				"/>
			<g id="XMLID_69_">
				<path id="XMLID_990_" class="st2" d="M16.46,0.28h-0.61c-0.84,0-1.54,0.69-1.54,1.54v6.64C14.31,9.3,15,10,15.85,10h0.61
					C17.3,10,18,9.31,18,8.46V1.82C17.99,0.98,17.3,0.28,16.46,0.28z"/>
				<path id="XMLID_989_" class="st2" d="M25.38,0.28L25.38,0.28c-1.01,0-1.84,0.74-1.84,1.64v6.44c0,0.9,0.83,1.64,1.84,1.64l0,0
					c1.01,0,1.84-0.74,1.84-1.64V1.92C27.22,1.02,26.4,0.28,25.38,0.28z"/>
				<path id="XMLID_983_" class="st2" d="M34.62,0.28L34.62,0.28c-1.01,0-1.84,0.74-1.84,1.64v6.44c0,0.9,0.83,1.64,1.84,1.64l0,0
					c1.01,0,1.84-0.74,1.84-1.64V1.92C36.46,1.02,35.63,0.28,34.62,0.28z"/>
				<path id="XMLID_77_" class="st2" d="M44.15,0.28h-0.61C42.7,0.28,42,0.97,42,1.82v6.64C42,9.3,42.69,10,43.54,10h0.61
					c0.84,0,1.54-0.69,1.54-1.54V1.82C45.69,0.98,45,0.28,44.15,0.28z"/>
			</g>
		</g>
		<g>
			<path class="st2" d="M20.39,26.81c0.16,0.47,0.31,0.93,0.43,1.37c0.05,0.2,0.1,0.4,0.16,0.61c0.05,0.21,0.1,0.42,0.14,0.63
				c0.04,0.21,0.07,0.42,0.1,0.62c0.03,0.2,0.04,0.39,0.04,0.56c0,0.41-0.06,0.81-0.17,1.19c-0.11,0.39-0.27,0.76-0.47,1.13
				c-0.2,0.36-0.44,0.71-0.72,1.05c-0.28,0.34-0.59,0.65-0.92,0.95c-0.34,0.3-0.7,0.57-1.09,0.82c-0.39,0.25-0.78,0.48-1.2,0.69
				l-1.17-1.64c0.31-0.16,0.63-0.33,0.95-0.53c0.32-0.2,0.62-0.41,0.92-0.63c0.29-0.23,0.57-0.46,0.82-0.71s0.47-0.5,0.66-0.75
				c0.19-0.26,0.34-0.51,0.45-0.78c0.11-0.26,0.16-0.52,0.16-0.77c0-0.18-0.02-0.38-0.07-0.59s-0.12-0.44-0.2-0.69
				c-0.08-0.24-0.19-0.5-0.3-0.78c-0.12-0.28-0.24-0.57-0.38-0.88L20.39,26.81z M19.27,22.86l1.44,1.44l-1.44,1.44l-1.44-1.44
				L19.27,22.86z"/>
			<path class="st2" d="M21.6,34.16c0.61-0.12,1.17-0.27,1.67-0.46c0.5-0.18,0.94-0.39,1.32-0.62c0.38-0.23,0.69-0.47,0.94-0.73
				s0.43-0.52,0.53-0.78c-0.19,0-0.38,0-0.59-0.01c-0.21-0.01-0.38-0.01-0.51-0.02c-0.5-0.04-0.96-0.16-1.38-0.34
				s-0.75-0.42-0.99-0.73c-0.18-0.23-0.31-0.49-0.39-0.76c-0.08-0.27-0.11-0.56-0.11-0.86c0-0.23,0.02-0.47,0.07-0.71
				c0.04-0.24,0.1-0.47,0.18-0.69c0.08-0.22,0.17-0.43,0.28-0.63c0.11-0.2,0.22-0.38,0.34-0.55c0.26-0.33,0.55-0.57,0.86-0.74
				s0.64-0.25,0.98-0.25c0.73,0,1.39,0.32,1.98,0.96c0.21,0.23,0.39,0.5,0.56,0.79c0.16,0.29,0.3,0.6,0.42,0.93
				c0.11,0.33,0.2,0.67,0.26,1.03s0.09,0.72,0.09,1.09c0,0.11,0,0.23-0.01,0.34s-0.01,0.22-0.02,0.32
				c-0.05,0.51-0.17,0.98-0.34,1.43c-0.18,0.44-0.4,0.85-0.68,1.23c-0.28,0.37-0.59,0.72-0.96,1.02c-0.36,0.31-0.76,0.57-1.19,0.81
				c-0.43,0.23-0.88,0.43-1.36,0.58c-0.48,0.16-0.97,0.27-1.47,0.35L21.6,34.16z M24.78,27.35c-0.09-0.02-0.19,0.01-0.31,0.09
				c-0.12,0.08-0.22,0.19-0.33,0.32c-0.1,0.14-0.19,0.29-0.25,0.45c-0.07,0.16-0.1,0.32-0.1,0.47c0,0.14,0.04,0.26,0.12,0.36
				s0.19,0.17,0.32,0.23s0.27,0.11,0.42,0.14c0.15,0.03,0.3,0.05,0.45,0.07h-0.01c0.11,0.01,0.24,0.01,0.39,0.02
				c0.15,0,0.29,0,0.43,0c0.04,0,0.08,0,0.1,0s0.04,0,0.06,0s0.04,0,0.06,0c0.02,0,0.05,0,0.09-0.01c-0.06-0.27-0.14-0.53-0.23-0.77
				s-0.19-0.46-0.31-0.66c-0.12-0.19-0.25-0.36-0.4-0.48C25.13,27.47,24.96,27.39,24.78,27.35z"/>
			<path class="st2" d="M31.92,26.81c0.16,0.47,0.31,0.93,0.43,1.37c0.05,0.2,0.1,0.4,0.16,0.61c0.05,0.21,0.1,0.42,0.14,0.63
				s0.07,0.42,0.1,0.62c0.03,0.2,0.04,0.39,0.04,0.56c0,0.41-0.06,0.81-0.17,1.19c-0.11,0.39-0.27,0.76-0.47,1.13
				c-0.2,0.36-0.44,0.71-0.72,1.05c-0.28,0.34-0.59,0.65-0.92,0.95c-0.34,0.3-0.7,0.57-1.09,0.82s-0.78,0.48-1.2,0.69l-1.18-1.65
				c0.31-0.16,0.63-0.33,0.95-0.53c0.32-0.2,0.62-0.41,0.92-0.63c0.29-0.23,0.57-0.46,0.82-0.71s0.47-0.5,0.66-0.75
				c0.19-0.26,0.34-0.51,0.45-0.78S31,30.86,31,30.61c0-0.18-0.02-0.38-0.07-0.59s-0.12-0.44-0.2-0.69c-0.08-0.24-0.19-0.5-0.3-0.78
				c-0.12-0.28-0.24-0.57-0.38-0.88L31.92,26.81z"/>
			<path class="st2" d="M37.51,36.43c0-0.96-0.06-1.87-0.17-2.73s-0.27-1.69-0.46-2.47c-0.2-0.78-0.43-1.53-0.7-2.24
				c-0.27-0.71-0.57-1.39-0.89-2.05s-0.65-1.29-1.01-1.9c-0.35-0.61-0.71-1.2-1.08-1.77l2.33-1.5c0.44,0.72,0.83,1.45,1.18,2.17
				c0.35,0.73,0.67,1.46,0.95,2.18c0.28,0.73,0.54,1.45,0.76,2.16c0.22,0.71,0.43,1.41,0.61,2.08c0.15-0.53,0.3-1.07,0.46-1.63
				s0.33-1.12,0.51-1.67c0.18-0.55,0.35-1.1,0.54-1.63c0.18-0.53,0.36-1.03,0.55-1.49c0.18-0.46,0.36-0.89,0.54-1.27
				c0.18-0.38,0.35-0.7,0.52-0.96l2.32,1.48c-0.23,0.36-0.46,0.77-0.69,1.23c-0.23,0.45-0.46,0.94-0.69,1.46
				c-0.23,0.52-0.45,1.06-0.67,1.63s-0.43,1.15-0.64,1.73c-0.47,1.36-0.84,2.63-1.09,3.83c-0.26,1.2-0.39,2.32-0.4,3.35h-2.78V36.43
				z"/>
		</g>
	</g>
</g>
</svg>
