<?xml version="1.0" encoding="utf-8"?>
<!-- Generator: Adobe Illustrator 23.0.3, SVG Export Plug-In . SVG Version: 6.00 Build 0)  -->
<svg version="1.1" id="Layer_1" xmlns="http://www.w3.org/2000/svg" xmlns:xlink="http://www.w3.org/1999/xlink" x="0px" y="0px"
	 viewBox="0 0 58 47" style="enable-background:new 0 0 58 47;" xml:space="preserve">
<style type="text/css">
	.st0{fill:#4ABEAD;}
	.st1{clip-path:url(#SVGID_2_);fill:#217165;}
	.st2{fill:#F04D26;}
</style>
<g>
	<g>
		<path class="st0" d="M52.33,39.78H18.19c-2.94,0-5.35-2.41-5.35-5.35V12.57c0-2.94,2.41-5.35,5.35-5.35h34.14
			c2.94,0,5.35,2.41,5.35,5.35v21.87C57.69,37.38,55.28,39.78,52.33,39.78z"/>
		<g>
			<g>
				<defs>
					<path id="SVGID_1_" d="M52.33,39.78H18.19c-2.94,0-5.35-2.41-5.35-5.35V12.57c0-2.94,2.41-5.35,5.35-5.35h34.14
						c2.94,0,5.35,2.41,5.35,5.35v21.87C57.69,37.38,55.28,39.78,52.33,39.78z"/>
				</defs>
				<clipPath id="SVGID_2_">
					<use xlink:href="#SVGID_1_"  style="overflow:visible;"/>
				</clipPath>
				<path class="st1" d="M76.88-11.55l-37.7,37.71c-2.08,2.08-5.49,2.08-7.57,0L-6.1-11.55c-2.08-2.08-2.08-5.49,0-7.57L31.6-56.83
					c2.08-2.08,5.49-2.08,7.57,0l37.71,37.71C78.96-17.02,78.96-13.62,76.88-11.55z"/>
			</g>
		</g>
		<path class="st2" d="M16.73,19.75H3.2c-0.9,0-1.63-0.73-1.63-1.63l0,0c0-0.9,0.73-1.63,1.63-1.63h13.53c0.9,0,1.63,0.73,1.63,1.63
			l0,0C18.36,19.02,17.63,19.75,16.73,19.75z"/>
		<path class="st2" d="M32.01,26.76H18.48c-0.9,0-1.63-0.73-1.63-1.63l0,0c0-0.9,0.73-1.63,1.63-1.63h13.53
			c0.9,0,1.63,0.73,1.63,1.63l0,0C33.64,26.03,32.9,26.76,32.01,26.76z"/>
		<path class="st2" d="M15.48,33.53H1.95c-0.9,0-1.63-0.73-1.63-1.63l0,0c0-0.9,0.73-1.63,1.63-1.63h13.53
			c0.9,0,1.63,0.73,1.63,1.63l0,0C17.11,32.78,16.37,33.53,15.48,33.53z"/>
	</g>
</g>
</svg>
