<?xml version="1.0" encoding="utf-8"?>
<!-- Generator: Adobe Illustrator 23.0.3, SVG Export Plug-In . SVG Version: 6.00 Build 0)  -->
<svg version="1.1" id="Layer_1" xmlns="http://www.w3.org/2000/svg" xmlns:xlink="http://www.w3.org/1999/xlink" x="0px" y="0px"
	 viewBox="0 0 60 49" style="enable-background:new 0 0 60 49;" xml:space="preserve">
<style type="text/css">
	.st0{fill:#B7E5DE;}
	.st1{fill:#4ABEAD;}
	.st2{fill:#F04D26;}
</style>
<g>
	<path class="st0" d="M30.49,40.97c-2.71-0.37-5.24-1.55-7.26-3.38c-0.81-0.73-1.53-1.55-2.14-2.45l-0.01-0.01
		c-0.91-1.32-1.57-2.8-1.96-4.35c-0.08-0.31-0.33-0.55-0.64-0.61c-1.51-0.31-2.49-1.78-2.18-3.29c0.22-1.1,1.08-1.96,2.18-2.18
		c0.32-0.06,0.57-0.3,0.64-0.61c1.42-5.65,6.26-9.77,12.06-10.27c-0.39-0.03-0.79-0.05-1.19-0.05c-6.26-0.01-11.73,4.24-13.25,10.32
		c-0.08,0.31-0.33,0.55-0.64,0.61c-1.51,0.31-2.49,1.78-2.18,3.29c0.22,1.1,1.08,1.96,2.18,2.18c0.32,0.06,0.57,0.3,0.64,0.61
		c0.39,1.56,1.06,3.03,1.96,4.35l0.01,0.01c0.62,0.9,1.33,1.72,2.14,2.45c2.03,1.83,4.56,3.01,7.26,3.38
		c0.62,0.08,1.25,0.13,1.88,0.13c0.4,0,0.8-0.02,1.19-0.05C30.94,41.03,30.72,41,30.49,40.97L30.49,40.97z"/>
	<g>
		<path class="st1" d="M5.55,39.72h0.83c0.41,2.39,2.48,4.14,4.91,4.14h0.27c0.41,2.39,2.48,4.14,4.91,4.14h6.16
			c3.07,0,5.67-2.25,6.13-5.28c0.41,0.03,0.82,0.05,1.23,0.05c0.42,0,0.83-0.02,1.24-0.05c0.46,3.03,3.06,5.28,6.13,5.28h6.16
			c2.43,0,4.5-1.75,4.91-4.14h0.27c2.43,0,4.5-1.75,4.91-4.14h0.83c2.75,0,4.98-2.23,4.98-4.98c0-0.46-0.37-0.83-0.83-0.83h-13.1
			c-0.56,0-1.12,0.06-1.67,0.17c0.37-0.77,0.68-1.57,0.91-2.4c2.34-0.77,3.62-3.29,2.85-5.63c-0.44-1.35-1.5-2.41-2.85-2.85
			c-2.34-8.14-10.84-12.84-18.98-10.5c-5.07,1.46-9.04,5.43-10.5,10.5c-2.34,0.77-3.61,3.3-2.83,5.64c0.44,1.34,1.49,2.39,2.83,2.83
			c0.24,0.82,0.54,1.63,0.91,2.4c-0.54-0.11-1.1-0.17-1.65-0.17H1.4c-0.46,0-0.83,0.37-0.83,0.83C0.57,37.49,2.8,39.72,5.55,39.72z
			 M57.63,35.56c-0.38,1.46-1.7,2.48-3.2,2.48h-5.8c-0.46,0-0.83,0.37-0.83,0.83c0,0.46,0.37,0.83,0.83,0.83h3.27
			c-0.38,1.46-1.7,2.48-3.2,2.48h-5.8c-0.46,0-0.83,0.37-0.83,0.83c0,0.46,0.37,0.83,0.83,0.83l0,0h3.83
			c-0.38,1.46-1.7,2.48-3.2,2.48h-6.16c-2.23,0-4.13-1.63-4.48-3.84c3.9-0.75,7.36-2.98,9.65-6.23c0.92-0.46,1.93-0.7,2.96-0.7
			L57.63,35.56z M13.85,27.44c0-1.33,0.94-2.47,2.24-2.74c0.32-0.06,0.57-0.3,0.64-0.61c1.85-7.32,9.29-11.75,16.61-9.9
			c4.87,1.23,8.67,5.03,9.9,9.9c0.08,0.31,0.33,0.55,0.65,0.61c1.51,0.3,2.49,1.77,2.19,3.29c-0.22,1.11-1.08,1.97-2.19,2.19
			c-0.32,0.06-0.57,0.3-0.65,0.61c-0.39,1.56-1.06,3.03-1.97,4.36l-0.01,0.01c-2.55,3.72-6.77,5.94-11.28,5.94
			c-0.63,0-1.26-0.04-1.88-0.13c-2.71-0.37-5.24-1.55-7.26-3.38c-0.81-0.73-1.53-1.55-2.14-2.45l-0.01-0.01
			c-0.91-1.32-1.57-2.8-1.96-4.35c-0.08-0.31-0.33-0.55-0.64-0.61C14.78,29.91,13.85,28.77,13.85,27.44L13.85,27.44z M14.51,35.58
			c1.02,0,2.02,0.24,2.94,0.69c0.66,0.94,1.43,1.81,2.29,2.58c2.08,1.87,4.63,3.14,7.38,3.66c-0.35,2.21-2.25,3.83-4.48,3.84h-6.16
			c-1.51,0-2.82-1.02-3.2-2.48h3.83c0.46,0,0.83-0.37,0.83-0.83c0-0.46-0.37-0.83-0.83-0.83h-5.8c-1.51,0-2.82-1.02-3.2-2.48h3.27
			c0.46,0,0.83-0.37,0.83-0.83c0-0.46-0.37-0.83-0.83-0.83h-5.8c-1.51,0-2.82-1.02-3.2-2.48L14.51,35.58z"/>
		<path class="st1" d="M36.23,29.36c-0.46,0-0.83,0.37-0.83,0.83c0,2.99-2.42,5.41-5.41,5.41c-2.99,0-5.41-2.42-5.41-5.41l0,0
			c0-0.46-0.37-0.83-0.83-0.83s-0.83,0.37-0.83,0.83c0,3.91,3.17,7.08,7.08,7.08s7.08-3.17,7.08-7.08l0,0
			C37.07,29.73,36.69,29.36,36.23,29.36z"/>
		<path class="st1" d="M24.39,20.2c0.22,0,0.43-0.09,0.59-0.24l2.77-2.78c0.33-0.33,0.33-0.85,0-1.18c-0.33-0.33-0.85-0.33-1.18,0
			l-2.77,2.78c-0.33,0.33-0.33,0.85,0,1.18C23.95,20.12,24.16,20.2,24.39,20.2L24.39,20.2z"/>
		<path class="st1" d="M27.8,19.97c0.33,0.33,0.85,0.33,1.18,0l0,0l2.77-2.78c0.33-0.33,0.33-0.85,0-1.18
			c-0.33-0.33-0.85-0.33-1.18,0l-2.78,2.78C27.48,19.11,27.48,19.64,27.8,19.97L27.8,19.97z"/>
		<path class="st1" d="M31.8,19.97c0.33,0.33,0.85,0.33,1.18,0l0,0l2.78-2.78c0.33-0.33,0.33-0.85,0-1.18
			c-0.33-0.33-0.85-0.33-1.18,0l-2.77,2.78C31.48,19.11,31.48,19.64,31.8,19.97L31.8,19.97L31.8,19.97z"/>
		<path class="st1" d="M21.31,27.61c0.46,0,0.83-0.37,0.83-0.83c0-0.89,0.72-1.6,1.6-1.6c0.89,0,1.6,0.72,1.6,1.6
			c0,0.46,0.37,0.83,0.83,0.83S27,27.24,27,26.78c0-1.81-1.46-3.27-3.27-3.27s-3.27,1.46-3.27,3.27
			C20.48,27.23,20.84,27.61,21.31,27.61z"/>
		<path class="st1" d="M32.96,26.77c0,0.46,0.37,0.83,0.83,0.83s0.83-0.37,0.83-0.83c0-0.89,0.72-1.6,1.6-1.61
			c0.89,0,1.6,0.72,1.61,1.6l0,0c0,0.46,0.37,0.83,0.83,0.83s0.83-0.37,0.83-0.83c0-1.81-1.46-3.27-3.27-3.27
			C34.43,23.5,32.96,24.95,32.96,26.77L32.96,26.77z"/>
	</g>
	<path class="st2" d="M21.2,9.31c2.3,0.77,5.35,1.19,8.57,1.19c3.22,0,6.27-0.42,8.57-1.19c3.32-1.11,4.01-2.55,4.01-3.56
		s-0.7-2.46-4.01-3.56C36.04,1.42,32.99,1,29.77,1S23.5,1.42,21.2,2.19c-3.32,1.1-4.01,2.55-4.01,3.56S17.9,8.22,21.2,9.31
		L21.2,9.31z M29.78,2.68c7.17,0,10.92,2.01,10.92,3.08s-3.75,3.08-10.92,3.08s-10.92-2-10.92-3.08S22.61,2.68,29.78,2.68z"/>
</g>
</svg>
