<?xml version="1.0" encoding="utf-8"?>
<!-- Generator: Adobe Illustrator 23.0.3, SVG Export Plug-In . SVG Version: 6.00 Build 0)  -->
<svg version="1.1" id="Layer_1" xmlns="http://www.w3.org/2000/svg" xmlns:xlink="http://www.w3.org/1999/xlink" x="0px" y="0px"
	 viewBox="0 0 118 82" style="enable-background:new 0 0 118 82;" xml:space="preserve">
<style type="text/css">
	.st0{fill:#DADCDE;}
	.st1{fill:#4ABEAD;}
	.st2{fill:#E9EEF2;}
	.st3{fill:#D0D2D4;}
	.st4{fill:#EB423F;}
	.st5{fill:#F7B030;}
	.st6{fill:#B1BD70;}
	.st7{fill:#4F5659;}
	.st8{fill:#2978B8;}
	.st9{fill:#C7312E;}
</style>
<g>
	<path class="st0" d="M12.41,0.5h93.17c2.24,0,4.05,1.81,4.05,4.05v60.76l0,0H8.36l0,0V4.55C8.36,2.31,10.18,0.5,12.41,0.5z"/>
	<path class="st1" d="M16.46,8.6h85.06v56.71H16.46V8.6z"/>
	<path class="st2" d="M16.46,8.6h85.06v8.1H16.46V8.6z"/>
	<path class="st3" d="M0.26,65.31h117.47l0,0v8.1c0,4.47-3.63,8.1-8.1,8.1H8.36c-4.47,0-8.1-3.63-8.1-8.1L0.26,65.31L0.26,65.31z"/>
	<path class="st2" d="M64.59,73.41h-11.2c-1.53,0-2.94-0.87-3.62-2.24l-2.93-5.86h24.3l-2.93,5.86
		C67.53,72.54,66.13,73.41,64.59,73.41z"/>
	<path class="st4" d="M85.9,53.15H68.54c-1.92,0-3.47-1.81-3.47-4.05c0-2.24,1.55-4.05,3.47-4.05H85.9c1.92,0,3.47,1.81,3.47,4.05
		C89.38,51.34,87.82,53.15,85.9,53.15z"/>
	<path class="st2" d="M85.32,61.26L81.27,49.1l12.15,4.05L85.32,61.26z"/>
	<circle class="st4" cx="24.56" cy="12.65" r="2.03"/>
	<circle class="st5" cx="32.67" cy="12.65" r="2.03"/>
	<circle class="st6" cx="40.78" cy="12.65" r="2.03"/>
	<path class="st7" d="M46.85,34.93c-1.12,0-2.03-0.91-2.03-2.03v-4.05c0-1.12-0.91-2.03-2.03-2.03c-1.12,0-2.03,0.91-2.03,2.03v4.05
		c0,1.12-0.91,2.03-2.03,2.03c-1.12,0-2.03-0.91-2.03-2.03v-4.05c0-3.36,2.72-6.08,6.08-6.08c3.36,0,6.08,2.72,6.08,6.08v4.05
		C48.88,34.02,47.96,34.93,46.85,34.93z"/>
	<g>
		<path class="st8" d="M81.27,30.88H61.03c-1.12,0-2.03-0.91-2.03-2.03s0.91-2.03,2.03-2.03h20.25c1.12,0,2.03,0.91,2.03,2.03
			S82.39,30.88,81.27,30.88z"/>
		<path class="st8" d="M73.17,38.98H61.03c-1.12,0-2.03-0.91-2.03-2.03s0.91-2.03,2.03-2.03h12.15c1.12,0,2.03,0.91,2.03,2.03
			S74.29,38.98,73.17,38.98z"/>
		<path class="st8" d="M93.43,30.88h-4.05c-1.12,0-2.03-0.91-2.03-2.03s0.91-2.03,2.03-2.03h4.05c1.12,0,2.03,0.91,2.03,2.03
			S94.54,30.88,93.43,30.88z"/>
		<path class="st8" d="M93.43,38.98H81.27c-1.12,0-2.03-0.91-2.03-2.03s0.91-2.03,2.03-2.03h12.15c1.12,0,2.03,0.91,2.03,2.03
			S94.54,38.98,93.43,38.98z"/>
	</g>
	<path class="st9" d="M52.92,57.21H32.67l2.03-24.3h16.2L52.92,57.21z"/>
	<path class="st4" d="M44.82,57.21H24.56l2.03-24.3h16.2L44.82,57.21z"/>
	<path class="st7" d="M38.74,34.93c-1.12,0-2.03-0.91-2.03-2.03v-4.05c0-1.12-0.91-2.03-2.03-2.03c-1.12,0-2.03,0.91-2.03,2.03v4.05
		c0,1.12-0.91,2.03-2.03,2.03s-2.03-0.91-2.03-2.03v-4.05c0-3.36,2.72-6.08,6.08-6.08s6.08,2.72,6.08,6.08v4.05
		C40.78,34.02,39.86,34.93,38.74,34.93z"/>
</g>
</svg>
