<?xml version="1.0" encoding="utf-8"?>
<!-- Generator: Adobe Illustrator 23.0.3, SVG Export Plug-In . SVG Version: 6.00 Build 0)  -->
<svg version="1.1" id="Layer_1" xmlns="http://www.w3.org/2000/svg" xmlns:xlink="http://www.w3.org/1999/xlink" x="0px" y="0px"
	 viewBox="0 0 159 144" style="enable-background:new 0 0 159 144;" xml:space="preserve">
<style type="text/css">
	.st0{fill:#58C1EF;}
	.st1{fill:#368F43;}
	.st2{fill:#B1D2C4;}
	.st3{fill:#1E5F30;}
	.st4{fill:#4E352E;}
	.st5{fill:#327E3E;}
	.st6{fill:#66BB6A;}
	.st7{fill:#E7553F;}
	.st8{fill:#FAFBFC;}
	.st9{fill:#E0F1F3;}
</style>
<g>
	<g>
		<circle class="st0" cx="84.19" cy="77.81" r="54.39"/>
		<path class="st1" d="M92.7,54.68h-4.11c-1.94,0-3.52,1.58-3.52,3.52s1.58,3.52,3.52,3.52h4.11c1.94,0,3.52-1.58,3.52-3.52
			S94.64,54.68,92.7,54.68z"/>
		<path class="st1" d="M138.59,77.81c0,4.14-0.47,8.18-1.34,12.06h-35.39c-1.94,0-3.52-1.58-3.52-3.52c0-1.94,1.58-3.52,3.52-3.52
			h4.41c1.94,0,3.52-1.58,3.52-3.52c0-1.94-1.58-3.52-3.52-3.52H91.31c-1.94,0-3.52-1.58-3.52-3.52s1.58-3.52,3.52-3.52h22
			c1.94,0,3.52-1.58,3.52-3.52c0-1.94-1.58-3.52-3.52-3.52h-7.73c-1.94,0-3.52-1.58-3.52-3.52s1.58-3.52,3.52-3.52h18.48
			c1.94,0,3.52-1.58,3.52-3.52s-1.58-3.52-3.52-3.52H113.2c-1.94,0-3.52-1.58-3.52-3.52s1.58-3.52,3.52-3.52h10.67
			C133,50.34,138.59,63.42,138.59,77.81z"/>
		<path class="st1" d="M127.29,110.98c-9.31,12.08-23.6,20.14-39.79,21.11h-0.77c-1.94,0-3.52-1.58-3.52-3.52s1.58-3.52,3.52-3.52
			h9.58c1.94,0,3.52-1.58,3.52-3.52c0-1.94-1.58-3.52-3.52-3.52h-3.39c-1.94,0-3.52-1.58-3.52-3.52c0-1.94,1.58-3.52,3.52-3.52h2.74
			c1.94,0,3.52-1.58,3.52-3.52c0-1.94-1.58-3.52-3.52-3.52H83.02c-1.94,0-3.52-1.58-3.52-3.52c0-1.94,1.58-3.52,3.52-3.52h28.93
			c1.94,0,3.52,1.58,3.52,3.52c0,1.94-1.58,3.52-3.52,3.52H110c-1.94,0-3.52,1.58-3.52,3.52c0,1.94,1.58,3.52,3.52,3.52
			L127.29,110.98L127.29,110.98z"/>
		<path class="st1" d="M135.14,96.9c-0.91,2.43-1.99,4.79-3.23,7.04h-4.29c-1.94,0-3.52-1.58-3.52-3.52c0-1.94,1.58-3.52,3.52-3.52
			C127.62,96.9,135.14,96.9,135.14,96.9z"/>
		<path class="st1" d="M67.06,110.98h-10.1c-1.94,0-3.52,1.58-3.52,3.52c0,1.94,1.58,3.52,3.52,3.52h10.1
			c1.94,0,3.52-1.58,3.52-3.52C70.57,112.56,69,110.98,67.06,110.98z"/>
		<path class="st2" d="M47.99,58.2H33.46c3.16-8.18,8.24-15.4,14.69-21.11h9.32c0.97,0,1.85,0.39,2.49,1.03
			c0.64,0.64,1.03,1.51,1.03,2.49c0,1.94-1.58,3.52-3.52,3.52H47.21c-0.97,0-1.85,0.39-2.49,1.03c-0.64,0.64-1.03,1.51-1.03,2.49
			c0,1.94,1.58,3.52,3.52,3.52h0.78c0.97,0,1.85,0.39,2.49,1.03c0.64,0.64,1.03,1.51,1.03,2.49C51.5,56.62,49.93,58.2,47.99,58.2z"
			/>
		<path class="st2" d="M68.53,68.75c0,1.94-1.58,3.52-3.52,3.52H50.25c-0.97,0-1.85,0.39-2.49,1.03c-0.64,0.64-1.03,1.51-1.03,2.49
			c0,1.94,1.58,3.52,3.52,3.52h4.19c0.97,0,1.85,0.39,2.49,1.03c0.64,0.64,1.03,1.51,1.03,2.49c0,1.94-1.58,3.52-3.52,3.52H30.48
			c-0.44-2.78-0.67-5.63-0.67-8.54c0-4.33,0.5-8.54,1.46-12.57H65C66.96,65.24,68.53,66.81,68.53,68.75z"/>
		<g>
			<polygon class="st3" points="117.17,74.37 113.45,82.59 120.86,82.59 			"/>
			<path class="st4" d="M116.46,82.59v3.4c0,0.2,0.16,0.37,0.37,0.37h0.66c0.2,0,0.37-0.16,0.37-0.37v-3.4H116.46z"/>
			<polygon class="st5" points="117.17,72.47 114.45,78.48 119.86,78.48 			"/>
		</g>
		<g>
			<polygon class="st3" points="65.77,103.61 62.71,110.41 68.84,110.41 			"/>
			<path class="st4" d="M65.2,110.41v2.81c0,0.17,0.14,0.3,0.3,0.3h0.54c0.17,0,0.3-0.14,0.3-0.3v-2.81H65.2z"/>
			<polygon class="st5" points="65.77,102.04 63.53,107.01 68.02,107.01 			"/>
		</g>
		<g>
			<polygon class="st3" points="129.15,91.44 126.08,98.24 132.22,98.24 			"/>
			<path class="st4" d="M128.58,98.24v2.81c0,0.17,0.14,0.3,0.3,0.3h0.54c0.17,0,0.3-0.14,0.3-0.3v-2.81H128.58z"/>
			<polygon class="st5" points="129.15,89.87 126.92,94.84 131.4,94.84 			"/>
		</g>
		<g>
			<polygon class="st3" points="99.44,66.94 97.24,71.85 101.65,71.85 			"/>
			<path class="st4" d="M99.02,71.85v2.03c0,0.12,0.1,0.22,0.22,0.22h0.39c0.12,0,0.22-0.1,0.22-0.22v-2.03H99.02z"/>
			<polygon class="st5" points="99.44,65.81 97.82,69.39 101.06,69.39 			"/>
			<polygon class="st1" points="99.44,65.09 98.42,67.36 100.46,67.36 			"/>
		</g>
		<g>
			<polygon class="st3" points="111.96,109.5 108.61,116.95 115.32,116.95 			"/>
			<path class="st4" d="M111.33,116.95v3.08c0,0.18,0.15,0.33,0.33,0.33h0.59c0.18,0,0.33-0.15,0.33-0.33v-3.08H111.33z"/>
			<polygon class="st5" points="111.96,107.78 109.51,113.23 114.42,113.23 			"/>
			<polygon class="st1" points="111.96,106.69 110.42,110.14 113.52,110.14 			"/>
		</g>
		<g>
			<polygon class="st3" points="89.1,121.4 87.07,125.92 91.13,125.92 			"/>
			<path class="st4" d="M88.72,125.92v1.87c0,0.11,0.09,0.2,0.2,0.2h0.36c0.11,0,0.2-0.09,0.2-0.2v-1.87H88.72z"/>
			<polygon class="st5" points="89.1,120.36 87.61,123.66 90.59,123.66 			"/>
			<polygon class="st1" points="89.1,119.7 88.17,121.79 90.04,121.79 			"/>
		</g>
		<g>
			<polygon class="st3" points="124.11,51.46 121.9,56.36 126.31,56.36 			"/>
			<path class="st4" d="M123.69,56.36v2.03c0,0.12,0.1,0.22,0.22,0.22h0.39c0.12,0,0.22-0.1,0.22-0.22v-2.03H123.69z"/>
			<polygon class="st5" points="124.11,50.33 122.49,53.91 125.72,53.91 			"/>
			<polygon class="st1" points="124.11,49.61 123.08,51.88 125.14,51.88 			"/>
		</g>
		<g>
			<g>
				<path class="st6" d="M125.72,65.8c0,0.81,0.66,1.47,1.47,1.47C127.19,66.45,126.53,65.8,125.72,65.8z"/>
			</g>
			<g>
				<path class="st6" d="M128.68,65.8c0,0.81-0.66,1.47-1.47,1.47C127.19,66.45,127.86,65.8,128.68,65.8z"/>
			</g>
		</g>
		<g>
			<g>
				<path class="st6" d="M134.23,76.87c0,0.81,0.66,1.47,1.47,1.47C135.71,77.53,135.04,76.87,134.23,76.87z"/>
			</g>
			<g>
				<path class="st6" d="M137.18,76.87c0,0.81-0.66,1.47-1.47,1.47C135.71,77.53,136.37,76.87,137.18,76.87z"/>
			</g>
		</g>
		<g>
			<g>
				<path class="st6" d="M103.4,86.35c0,0.81,0.66,1.47,1.47,1.47C104.88,87.01,104.21,86.35,103.4,86.35z"/>
			</g>
			<g>
				<path class="st6" d="M106.34,86.35c0,0.81-0.66,1.47-1.47,1.47C104.88,87.01,105.53,86.35,106.34,86.35z"/>
			</g>
		</g>
		<g>
			<g>
				<path class="st6" d="M100.17,111.23c0,0.81,0.66,1.47,1.47,1.47C101.65,111.89,100.99,111.23,100.17,111.23z"/>
			</g>
			<g>
				<path class="st6" d="M103.13,111.23c0,0.81-0.66,1.47-1.47,1.47C101.65,111.89,102.31,111.23,103.13,111.23z"/>
			</g>
		</g>
		<g>
			<g>
				<path class="st6" d="M54.6,113.76c0,0.81,0.66,1.47,1.47,1.47C56.07,114.42,55.42,113.76,54.6,113.76z"/>
			</g>
			<g>
				<path class="st6" d="M57.54,113.76c0,0.81-0.66,1.47-1.47,1.47C56.07,114.42,56.74,113.76,57.54,113.76z"/>
			</g>
		</g>
		<g>
			<g>
				<path class="st6" d="M93.27,126.21c0,0.81,0.66,1.47,1.47,1.47C94.74,126.87,94.08,126.21,93.27,126.21z"/>
			</g>
			<g>
				<path class="st6" d="M96.22,126.21c0,0.81-0.66,1.47-1.47,1.47C94.74,126.87,95.4,126.21,96.22,126.21z"/>
			</g>
		</g>
		<g>
			<g>
				<path class="st6" d="M108.93,100.18c0,0.81,0.66,1.47,1.47,1.47C110.42,100.84,109.75,100.18,108.93,100.18z"/>
			</g>
			<g>
				<path class="st6" d="M111.88,100.18c0,0.81-0.66,1.47-1.47,1.47C110.42,100.84,111.07,100.18,111.88,100.18z"/>
			</g>
		</g>
		<g>
			<g>
				<path class="st6" d="M117.85,114.5c0,0.81,0.66,1.47,1.47,1.47C119.33,115.16,118.67,114.5,117.85,114.5z"/>
			</g>
			<g>
				<path class="st6" d="M120.81,114.5c0,0.81-0.66,1.47-1.47,1.47C119.33,115.16,119.99,114.5,120.81,114.5z"/>
			</g>
		</g>
		<g>
			<g>
				<path class="st6" d="M113.56,40.6c0,0.81,0.66,1.47,1.47,1.47C115.03,41.26,114.38,40.6,113.56,40.6z"/>
			</g>
			<g>
				<path class="st6" d="M116.5,40.6c0,0.81-0.66,1.47-1.47,1.47C115.03,41.26,115.69,40.6,116.5,40.6z"/>
			</g>
		</g>
		<g>
			<path class="st7" d="M93.72,82.35c0,4.93-8.92,18.39-8.92,18.39s-8.92-13.46-8.92-18.39s3.99-8.92,8.92-8.92
				S93.72,77.42,93.72,82.35z"/>
			<path class="st8" d="M90.04,82.35c0,2.9-2.35,5.24-5.24,5.24c-2.9,0-5.24-2.35-5.24-5.24c0-2.9,2.35-5.24,5.24-5.24
				C87.7,77.11,90.04,79.45,90.04,82.35z"/>
			<path class="st7" d="M148.33,32.37c0,7.79-14.1,29.07-14.1,29.07s-14.1-21.28-14.1-29.07s6.31-14.1,14.1-14.1
				C142.01,18.26,148.33,24.58,148.33,32.37z"/>
			<path class="st8" d="M142.51,32.37c0,4.58-3.71,8.29-8.29,8.29c-4.58,0-8.29-3.71-8.29-8.29s3.71-8.29,8.29-8.29
				C138.81,24.08,142.51,27.79,142.51,32.37z"/>
			<path class="st7" d="M47.21,52.55c0,7.02-12.7,26.19-12.7,26.19s-12.7-19.17-12.7-26.19s5.69-12.7,12.7-12.7
				C41.53,39.85,47.21,45.54,47.21,52.55z"/>
			<ellipse class="st8" cx="34.51" cy="52.55" rx="7.47" ry="7.47"/>
		</g>
	</g>
	<path class="st9" d="M6.78,63.15H6.12c-0.97,0-1.76-0.79-1.76-1.76v-0.63c0-0.28-0.21-0.52-0.48-0.54
		c-0.29-0.02-0.54,0.22-0.54,0.51v0.66c0,0.97-0.79,1.76-1.76,1.76H0.92c-0.28,0-0.51,0.23-0.51,0.51l0,0
		c0,0.28,0.23,0.51,0.51,0.51h0.66c0.97,0,1.76,0.79,1.76,1.76v0.63c0,0.28,0.21,0.52,0.48,0.54c0.29,0.02,0.54-0.22,0.54-0.51
		v-0.66c0-0.97,0.79-1.76,1.76-1.76h0.66c0.28,0,0.51-0.23,0.51-0.51l0,0C7.29,63.38,7.06,63.15,6.78,63.15z"/>
	<path class="st9" d="M90.54,3.07h-0.66c-0.97,0-1.76-0.79-1.76-1.76V0.68c0-0.28-0.21-0.52-0.48-0.54
		c-0.29-0.02-0.54,0.22-0.54,0.51v0.66c0,0.97-0.79,1.76-1.76,1.76h-0.66c-0.28,0-0.51,0.23-0.51,0.51l0,0
		c0,0.28,0.23,0.51,0.51,0.51h0.66c0.97,0,1.76,0.79,1.76,1.76v0.63c0,0.28,0.21,0.52,0.48,0.54c0.29,0.02,0.54-0.22,0.54-0.51V5.85
		c0-0.97,0.79-1.76,1.76-1.76h0.66c0.28,0,0.51-0.23,0.51-0.51l0,0C91.06,3.3,90.83,3.07,90.54,3.07z"/>
	<path class="st9" d="M156.39,97.73h-0.66c-0.97,0-1.76-0.79-1.76-1.76v-0.63c0-0.28-0.21-0.52-0.48-0.54
		c-0.29-0.02-0.54,0.22-0.54,0.51v0.66c0,0.97-0.79,1.76-1.76,1.76h-0.66c-0.28,0-0.51,0.23-0.51,0.51l0,0
		c0,0.28,0.23,0.51,0.51,0.51h0.66c0.97,0,1.76,0.79,1.76,1.76v0.63c0,0.28,0.21,0.52,0.48,0.54c0.29,0.02,0.54-0.22,0.54-0.51
		v-0.66c0-0.97,0.79-1.76,1.76-1.76h0.66c0.28,0,0.51-0.23,0.51-0.51l0,0C156.9,97.96,156.67,97.73,156.39,97.73z"/>
	<path class="st9" d="M17.39,33.59h-0.33c-0.48,0-0.86-0.39-0.86-0.86v-0.31c0-0.14-0.1-0.26-0.24-0.26
		c-0.14-0.01-0.26,0.11-0.26,0.25v0.32c0,0.48-0.39,0.86-0.86,0.86h-0.32c-0.14,0-0.25,0.11-0.25,0.25l0,0
		c0,0.14,0.11,0.25,0.25,0.25h0.32c0.48,0,0.86,0.39,0.86,0.86v0.31c0,0.14,0.1,0.26,0.24,0.26c0.14,0.01,0.26-0.11,0.26-0.25v-0.33
		c0-0.48,0.39-0.86,0.86-0.86h0.33c0.14,0,0.25-0.11,0.25-0.25l0,0C17.64,33.7,17.53,33.59,17.39,33.59z"/>
	<path class="st9" d="M106.31,14.45h-0.33c-0.48,0-0.86-0.39-0.86-0.86v-0.32c0-0.14-0.1-0.26-0.24-0.26
		c-0.14-0.01-0.26,0.11-0.26,0.25v0.32c0,0.48-0.39,0.86-0.86,0.86h-0.32c-0.14,0-0.25,0.11-0.25,0.25l0,0
		c0,0.14,0.11,0.25,0.25,0.25h0.32c0.48,0,0.86,0.39,0.86,0.86v0.31c0,0.14,0.1,0.26,0.24,0.26c0.14,0.01,0.26-0.11,0.26-0.25V15.8
		c0-0.48,0.39-0.86,0.86-0.86h0.33c0.14,0,0.25-0.11,0.25-0.25l0,0C106.56,14.56,106.45,14.45,106.31,14.45z"/>
	<path class="st9" d="M151.46,76.62h-0.33c-0.48,0-0.86-0.39-0.86-0.86v-0.31c0-0.14-0.1-0.26-0.24-0.26
		c-0.14-0.01-0.26,0.11-0.26,0.25v0.32c0,0.48-0.39,0.86-0.86,0.86h-0.33c-0.14,0-0.25,0.11-0.25,0.25l0,0
		c0,0.14,0.11,0.25,0.25,0.25h0.33c0.48,0,0.86,0.39,0.86,0.86v0.31c0,0.14,0.1,0.26,0.24,0.26c0.14,0.01,0.26-0.11,0.26-0.25v-0.32
		c0-0.48,0.39-0.86,0.86-0.86h0.33c0.14,0,0.25-0.11,0.25-0.25l0,0C151.71,76.74,151.6,76.62,151.46,76.62z"/>
	<path class="st9" d="M35.03,133.63h-0.32c-0.48,0-0.86-0.39-0.86-0.86v-0.31c0-0.14-0.1-0.26-0.24-0.26
		c-0.14-0.01-0.26,0.11-0.26,0.25v0.32c0,0.48-0.39,0.86-0.86,0.86h-0.33c-0.14,0-0.25,0.11-0.25,0.25l0,0
		c0,0.14,0.11,0.25,0.25,0.25h0.33c0.48,0,0.86,0.39,0.86,0.86v0.31c0,0.14,0.1,0.26,0.24,0.26c0.14,0.01,0.26-0.11,0.26-0.25v-0.32
		c0-0.48,0.39-0.86,0.86-0.86h0.32c0.14,0,0.25-0.11,0.25-0.25l0,0C35.28,133.74,35.17,133.63,35.03,133.63z"/>
	<path class="st9" d="M137.14,115.72h-0.32c-0.48,0-0.86-0.39-0.86-0.86v-0.31c0-0.14-0.1-0.26-0.24-0.26
		c-0.14-0.01-0.26,0.11-0.26,0.25v0.32c0,0.48-0.39,0.86-0.86,0.86h-0.33c-0.14,0-0.25,0.11-0.25,0.25l0,0
		c0,0.14,0.11,0.25,0.25,0.25h0.33c0.48,0,0.86,0.39,0.86,0.86v0.31c0,0.14,0.1,0.26,0.24,0.26c0.14,0.01,0.26-0.11,0.26-0.25v-0.32
		c0-0.48,0.39-0.86,0.86-0.86h0.32c0.14,0,0.25-0.11,0.25-0.25l0,0C137.39,115.83,137.28,115.72,137.14,115.72z"/>
	<path class="st9" d="M96.18,141.93h-0.33c-0.48,0-0.86-0.39-0.86-0.86v-0.31c0-0.14-0.1-0.26-0.24-0.26
		c-0.14-0.01-0.26,0.11-0.26,0.25v0.32c0,0.48-0.39,0.86-0.86,0.86h-0.32c-0.14,0-0.25,0.11-0.25,0.25l0,0
		c0,0.14,0.11,0.25,0.25,0.25h0.32c0.48,0,0.86,0.39,0.86,0.86v0.31c0,0.14,0.1,0.26,0.24,0.26c0.14,0.01,0.26-0.11,0.26-0.25v-0.33
		c0-0.48,0.39-0.86,0.86-0.86h0.33c0.14,0,0.25-0.11,0.25-0.25l0,0C96.43,142.04,96.32,141.93,96.18,141.93z"/>
	<path class="st9" d="M19.08,85.15h-0.33c-0.48,0-0.86-0.39-0.86-0.86v-0.32c0-0.14-0.1-0.26-0.24-0.26
		c-0.14-0.01-0.26,0.11-0.26,0.25v0.32c0,0.48-0.39,0.86-0.86,0.86h-0.32c-0.14,0-0.25,0.11-0.25,0.25l0,0
		c0,0.14,0.11,0.25,0.25,0.25h0.32c0.48,0,0.86,0.39,0.86,0.86v0.31c0,0.14,0.1,0.26,0.24,0.26c0.14,0.01,0.26-0.11,0.26-0.25v-0.33
		c0-0.48,0.39-0.86,0.86-0.86h0.33c0.14,0,0.25-0.11,0.25-0.25l0,0C19.33,85.26,19.22,85.15,19.08,85.15z"/>
	<path class="st9" d="M56.78,1.58h-0.33c-0.48,0-0.86-0.39-0.86-0.86V0.4c0-0.14-0.1-0.26-0.24-0.26c-0.14-0.01-0.26,0.11-0.26,0.25
		v0.32c0,0.48-0.39,0.86-0.86,0.86H53.9c-0.14,0-0.25,0.11-0.25,0.25l0,0c0,0.14,0.11,0.25,0.25,0.25h0.32
		c0.48,0,0.86,0.39,0.86,0.86v0.31c0,0.14,0.1,0.26,0.24,0.26c0.14,0.01,0.26-0.11,0.26-0.25V2.94c0-0.48,0.39-0.86,0.86-0.86h0.33
		c0.14,0,0.25-0.11,0.25-0.25l0,0C57.03,1.69,56.9,1.58,56.78,1.58z"/>
	<path class="st9" d="M158.34,44.84h-0.32c-0.48,0-0.86-0.39-0.86-0.86v-0.31c0-0.14-0.1-0.26-0.24-0.26
		c-0.14-0.01-0.26,0.11-0.26,0.25v0.33c0,0.48-0.39,0.86-0.86,0.86h-0.32c-0.14,0-0.25,0.11-0.25,0.25l0,0
		c0,0.14,0.11,0.25,0.25,0.25h0.32c0.48,0,0.86,0.39,0.86,0.86v0.31c0,0.14,0.1,0.26,0.24,0.26c0.14,0.01,0.26-0.11,0.26-0.25v-0.32
		c0-0.48,0.39-0.86,0.86-0.86h0.32c0.14,0,0.25-0.11,0.25-0.25l0,0C158.59,44.95,158.48,44.84,158.34,44.84z"/>
	<path class="st9" d="M139.1,63.66c-0.38,0-0.75,0.07-1.08,0.2c0-0.07,0.01-0.13,0.01-0.2c0-3.41-2.77-6.18-6.18-6.18
		c-2.89,0-5.31,1.99-5.98,4.67c-0.59-0.33-1.27-0.51-1.99-0.51c-1.88,0-3.46,1.27-3.95,2.99c-0.5-0.41-1.14-0.65-1.84-0.65
		c-1.62,0-2.93,1.31-2.93,2.93s1.31,2.93,2.93,2.93h21.01c1.71,0,3.09-1.38,3.09-3.09S140.81,63.66,139.1,63.66z"/>
	<path class="st9" d="M73.28,26.26c-0.47,0-0.91,0.09-1.33,0.24c-0.42-3.16-3.12-5.61-6.4-5.61c-1.15,0-2.24,0.31-3.18,0.84
		C61.56,16.78,57.27,13,52.1,13c-4.92,0-9.04,3.41-10.13,7.99c-0.58-0.17-1.19-0.26-1.82-0.26c-3.62,0-6.55,2.93-6.55,6.55
		s2.93,6.55,6.55,6.55h33.13c2.09,0,3.79-1.7,3.79-3.79C77.06,27.96,75.38,26.26,73.28,26.26z"/>
	<path class="st9" d="M49.67,93.81c-1.56,0-2.98,0.63-4,1.66c-1.07-2.43-3.5-4.13-6.32-4.13c-3.19,0-5.87,2.17-6.66,5.11
		c-0.38-0.11-0.78-0.17-1.19-0.17c-2.45,0-4.44,1.99-4.44,4.44c0,2.45,1.99,4.44,4.44,4.44h18.18c3.13,0,5.67-2.54,5.67-5.67
		C55.33,96.34,52.79,93.81,49.67,93.81z"/>
	<path class="st8" d="M84.08,44.2c1.21,0,2.31,0.49,3.1,1.28c0.83-1.88,2.71-3.2,4.9-3.2c2.48,0,4.55,1.68,5.17,3.96
		c0.29-0.08,0.6-0.13,0.92-0.13c1.9,0,3.44,1.54,3.44,3.44c0,1.9-1.54,3.44-3.44,3.44H84.08c-2.43,0-4.4-1.97-4.4-4.4
		C79.68,46.17,81.65,44.2,84.08,44.2z"/>
</g>
</svg>
