<?xml version="1.0" encoding="utf-8"?>
<!-- Generator: Adobe Illustrator 23.0.3, SVG Export Plug-In . SVG Version: 6.00 Build 0)  -->
<svg version="1.1" id="Layer_1" xmlns="http://www.w3.org/2000/svg" xmlns:xlink="http://www.w3.org/1999/xlink" x="0px" y="0px"
	 viewBox="0 0 60 49" style="enable-background:new 0 0 60 49;" xml:space="preserve">
<style type="text/css">
	.st0{fill:#B7E5DE;}
	.st1{fill:#4ABEAD;}
	.st2{fill:#F04D26;}
</style>
<g>
	<rect x="8.44" y="1.98" class="st0" width="1.83" height="45.03"/>
	<path class="st0" d="M31.44,47.01h-1.63v-24.3c0,0,0-1.42,0-1.71c0-0.79,0.1-1.62,0.85-2.39c0.83-0.85,1.69-0.89,1.69-0.89
		s-0.98,0.51-0.91,2.49c0.01,0.25,0,1.02,0,1.02V47.01z"/>
	<g>
		<g>
			<path class="st1" d="M7.69,48.5c-0.41,0-0.74-0.33-0.74-0.74V1.24c0-0.41,0.33-0.74,0.74-0.74h21.37c0.41,0,0.74,0.33,0.74,0.74
				v16.1l0.32-0.24c0.79-0.59,1.73-0.91,2.72-0.91h15.69c2.5,0,4.53,2.03,4.53,4.53v1.89c0,1.11-0.71,2.11-1.76,2.48l-0.13,0.05
				v22.62c0,0.41-0.33,0.74-0.74,0.74C50.42,48.5,7.69,48.5,7.69,48.5z M32.83,17.68c-1.68,0-3.04,1.36-3.04,3.04v26.29h19.88V29.02
				h-5.64c-0.41,0-0.74-0.33-0.74-0.74s0.33-0.74,0.74-0.74h5.64v-2.29H34.72c-1.45,0-2.63-1.18-2.63-2.63v-0.64
				c0-0.41,0.33-0.74,0.74-0.74s0.74,0.33,0.74,0.74v0.64c0,0.63,0.51,1.15,1.15,1.15c0.63,0,1.15-0.51,1.15-1.15v-1.89
				C35.88,19.04,34.51,17.68,32.83,17.68z M8.44,47.01h19.88V1.98H8.44V47.01z M44.35,22.95c0.2,0,0.39,0.08,0.53,0.22
				c0.11,0.11,0.18,0.26,0.21,0.41l0.03,0.17h5.32c0.63,0,1.15-0.51,1.15-1.15v-1.89c0-1.68-1.36-3.04-3.04-3.04h-3.47l0.02,0.22
				c0,0.26-0.08,0.45-0.22,0.59s-0.33,0.22-0.53,0.22c-0.2,0-0.39-0.08-0.53-0.22s-0.22-0.33-0.22-0.53v-0.2l-0.2-0.08H36.2
				l0.24,0.32c0.59,0.79,0.91,1.73,0.91,2.72v1.89c0,0.3-0.05,0.6-0.15,0.88l-0.1,0.27h6.46l0.03-0.17c0.02-0.16,0.1-0.31,0.21-0.41
				C43.96,23.03,44.15,22.95,44.35,22.95z"/>
		</g>
	</g>
	<g>
		<g>
			<path class="st2" d="M41.08,27.61c-0.18-0.18-0.42-0.28-0.67-0.28s-0.49,0.1-0.67,0.28s-0.28,0.42-0.28,0.67s0.1,0.49,0.28,0.67
				s0.42,0.28,0.67,0.28s0.49-0.1,0.67-0.28s0.28-0.42,0.28-0.67C41.35,28.03,41.25,27.78,41.08,27.61z"/>
		</g>
	</g>
	<g>
		<g>
			<path class="st2" d="M13.31,11.73c-0.18-0.18-0.42-0.28-0.67-0.28s-0.49,0.1-0.67,0.28c-0.18,0.18-0.28,0.42-0.28,0.67
				s0.1,0.49,0.28,0.67s0.42,0.28,0.67,0.28s0.49-0.1,0.67-0.28c0.18-0.18,0.28-0.42,0.28-0.67S13.49,11.9,13.31,11.73z"/>
		</g>
	</g>
	<g>
		<g>
			<path class="st2" d="M16.18,11.73c-0.18-0.18-0.42-0.28-0.67-0.28s-0.49,0.1-0.67,0.28c-0.18,0.18-0.28,0.42-0.28,0.67
				s0.1,0.49,0.28,0.67c0.18,0.18,0.42,0.28,0.67,0.28s0.49-0.1,0.67-0.28c0.18-0.18,0.28-0.42,0.28-0.67S16.36,11.9,16.18,11.73z"
				/>
		</g>
	</g>
	<g>
		<g>
			<path class="st2" d="M19.05,11.73c-0.18-0.18-0.42-0.28-0.67-0.28s-0.49,0.1-0.67,0.28c-0.18,0.18-0.28,0.42-0.28,0.67
				s0.1,0.49,0.28,0.67c0.18,0.18,0.42,0.28,0.67,0.28s0.49-0.1,0.67-0.28c0.18-0.18,0.28-0.42,0.28-0.67S19.22,11.9,19.05,11.73z"
				/>
		</g>
	</g>
	<g>
		<g>
			<path class="st2" d="M16.18,8.86c-0.18-0.18-0.42-0.28-0.67-0.28s-0.49,0.1-0.67,0.28c-0.18,0.18-0.28,0.42-0.28,0.67
				s0.1,0.49,0.28,0.67c0.18,0.18,0.42,0.28,0.67,0.28s0.49-0.1,0.67-0.28c0.18-0.18,0.28-0.42,0.28-0.67S16.36,9.03,16.18,8.86z"/>
		</g>
	</g>
	<g>
		<g>
			<path class="st2" d="M16.18,14.59c-0.18-0.18-0.42-0.28-0.67-0.28s-0.49,0.1-0.67,0.28c-0.18,0.18-0.28,0.42-0.28,0.67
				c0,0.25,0.1,0.49,0.28,0.67c0.18,0.18,0.42,0.28,0.67,0.28s0.49-0.1,0.67-0.28c0.18-0.18,0.28-0.42,0.28-0.67
				C16.45,15.01,16.36,14.77,16.18,14.59z"/>
		</g>
	</g>
	<g>
		<g>
			<path class="st2" d="M26.87,11.73c-0.18-0.18-0.42-0.28-0.67-0.28s-0.49,0.1-0.67,0.28c-0.18,0.18-0.28,0.42-0.28,0.67
				s0.1,0.49,0.28,0.67s0.42,0.28,0.67,0.28s0.49-0.1,0.67-0.28c0.18-0.18,0.28-0.42,0.28-0.67S27.05,11.9,26.87,11.73z"/>
		</g>
	</g>
	<g>
		<g>
			<path class="st2" d="M26.87,35.93c-0.18-0.18-0.42-0.28-0.67-0.28s-0.49,0.1-0.67,0.28s-0.28,0.42-0.28,0.67s0.1,0.49,0.28,0.67
				s0.42,0.28,0.67,0.28s0.49-0.1,0.67-0.28s0.28-0.42,0.28-0.67S27.05,36.1,26.87,35.93z"/>
		</g>
	</g>
	<g>
		<g>
			<path class="st2" d="M19.05,23.83c-0.18-0.18-0.42-0.28-0.67-0.28s-0.49,0.1-0.67,0.28s-0.28,0.42-0.28,0.67s0.1,0.49,0.28,0.67
				c0.18,0.18,0.42,0.28,0.67,0.28s0.49-0.1,0.67-0.28s0.28-0.42,0.28-0.67C19.32,24.25,19.22,24,19.05,23.83z"/>
		</g>
	</g>
	<g>
		<g>
			<path class="st2" d="M21.91,23.83c-0.18-0.18-0.42-0.28-0.67-0.28s-0.49,0.1-0.67,0.28s-0.28,0.42-0.28,0.67s0.1,0.49,0.28,0.67
				s0.42,0.28,0.67,0.28s0.49-0.1,0.67-0.28s0.28-0.42,0.28-0.67S22.09,24,21.91,23.83z"/>
		</g>
	</g>
	<g>
		<g>
			<path class="st2" d="M24.78,23.83c-0.18-0.18-0.42-0.28-0.67-0.28s-0.49,0.1-0.67,0.28s-0.28,0.42-0.28,0.67s0.1,0.49,0.28,0.67
				s0.42,0.28,0.67,0.28s0.49-0.1,0.67-0.28s0.28-0.42,0.28-0.67C25.06,24.25,24.96,24,24.78,23.83z"/>
		</g>
	</g>
	<g>
		<g>
			<path class="st2" d="M21.91,20.96c-0.18-0.18-0.42-0.28-0.67-0.28s-0.49,0.1-0.67,0.28s-0.28,0.42-0.28,0.67s0.1,0.49,0.28,0.67
				s0.42,0.28,0.67,0.28s0.49-0.1,0.67-0.28s0.28-0.42,0.28-0.67S22.09,21.14,21.91,20.96z"/>
		</g>
	</g>
	<g>
		<g>
			<path class="st2" d="M21.91,26.69c-0.18-0.18-0.42-0.28-0.67-0.28s-0.49,0.1-0.67,0.28s-0.28,0.42-0.28,0.67s0.1,0.49,0.28,0.67
				s0.42,0.28,0.67,0.28s0.49-0.1,0.67-0.28s0.28-0.42,0.28-0.67S22.09,26.87,21.91,26.69z"/>
		</g>
	</g>
	<g>
		<g>
			<path class="st2" d="M21.91,5.68C21.73,5.5,21.49,5.4,21.24,5.4s-0.49,0.1-0.67,0.28s-0.28,0.42-0.28,0.67s0.1,0.49,0.28,0.67
				s0.42,0.28,0.67,0.28s0.49-0.1,0.67-0.28c0.18-0.18,0.28-0.42,0.28-0.67S22.09,5.85,21.91,5.68z"/>
		</g>
	</g>
	<g>
		<g>
			<path class="st2" d="M21.91,43.3c-0.18-0.18-0.42-0.28-0.67-0.28s-0.49,0.1-0.67,0.28s-0.28,0.42-0.28,0.67s0.1,0.49,0.28,0.67
				c0.18,0.18,0.42,0.28,0.67,0.28s0.49-0.1,0.67-0.28s0.28-0.42,0.28-0.67S22.09,43.47,21.91,43.3z"/>
		</g>
	</g>
	<g>
		<g>
			<path class="st2" d="M13.31,35.93c-0.18-0.18-0.42-0.28-0.67-0.28s-0.49,0.1-0.67,0.28c-0.18,0.18-0.28,0.42-0.28,0.67
				s0.1,0.49,0.28,0.67s0.42,0.28,0.67,0.28s0.49-0.1,0.67-0.28s0.28-0.42,0.28-0.67S13.49,36.1,13.31,35.93z"/>
		</g>
	</g>
	<g>
		<g>
			<path class="st2" d="M16.18,35.93c-0.18-0.18-0.42-0.28-0.67-0.28s-0.49,0.1-0.67,0.28s-0.28,0.42-0.28,0.67s0.1,0.49,0.28,0.67
				c0.18,0.18,0.42,0.28,0.67,0.28s0.49-0.1,0.67-0.28c0.18-0.18,0.28-0.42,0.28-0.67S16.36,36.1,16.18,35.93z"/>
		</g>
	</g>
	<g>
		<g>
			<path class="st2" d="M19.05,35.93c-0.18-0.18-0.42-0.28-0.67-0.28s-0.49,0.1-0.67,0.28s-0.28,0.42-0.28,0.67s0.1,0.49,0.28,0.67
				c0.18,0.18,0.42,0.28,0.67,0.28s0.49-0.1,0.67-0.28s0.28-0.42,0.28-0.67S19.22,36.1,19.05,35.93z"/>
		</g>
	</g>
	<g>
		<g>
			<path class="st2" d="M16.18,33.06c-0.18-0.18-0.42-0.28-0.67-0.28s-0.49,0.1-0.67,0.28s-0.28,0.42-0.28,0.67s0.1,0.49,0.28,0.67
				c0.18,0.18,0.42,0.28,0.67,0.28s0.49-0.1,0.67-0.28c0.18-0.18,0.28-0.42,0.28-0.67S16.36,33.24,16.18,33.06z"/>
		</g>
	</g>
	<g>
		<g>
			<path class="st2" d="M16.18,38.8c-0.18-0.18-0.42-0.28-0.67-0.28s-0.49,0.1-0.67,0.28s-0.28,0.42-0.28,0.67s0.1,0.49,0.28,0.67
				c0.18,0.18,0.42,0.28,0.67,0.28s0.49-0.1,0.67-0.28c0.18-0.18,0.28-0.42,0.28-0.67S16.36,38.97,16.18,38.8z"/>
		</g>
	</g>
	<g>
		<g>
			<path class="st2" d="M48.06,35.93c-0.18-0.18-0.42-0.28-0.67-0.28s-0.49,0.1-0.67,0.28c-0.18,0.18-0.28,0.42-0.28,0.67
				s0.1,0.49,0.28,0.67c0.18,0.18,0.42,0.28,0.67,0.28s0.49-0.1,0.67-0.28c0.18-0.18,0.28-0.42,0.28-0.67S48.24,36.1,48.06,35.93z"
				/>
		</g>
	</g>
	<g>
		<g>
			<path class="st2" d="M43.1,43.3c-0.18-0.18-0.42-0.28-0.67-0.28s-0.49,0.1-0.67,0.28c-0.18,0.18-0.28,0.42-0.28,0.67
				s0.1,0.49,0.28,0.67c0.18,0.18,0.42,0.28,0.67,0.28s0.49-0.1,0.67-0.28c0.18-0.18,0.28-0.42,0.28-0.67S43.28,43.47,43.1,43.3z"/>
		</g>
	</g>
	<g>
		<g>
			<path class="st2" d="M34.49,35.93c-0.18-0.18-0.42-0.28-0.67-0.28s-0.49,0.1-0.67,0.28s-0.28,0.42-0.28,0.67s0.1,0.49,0.28,0.67
				c0.18,0.18,0.42,0.28,0.67,0.28s0.49-0.1,0.67-0.28s0.28-0.42,0.28-0.67S34.67,36.1,34.49,35.93z"/>
		</g>
	</g>
	<g>
		<g>
			<path class="st2" d="M37.37,35.93c-0.18-0.18-0.42-0.28-0.67-0.28s-0.49,0.1-0.67,0.28s-0.28,0.42-0.28,0.67s0.1,0.49,0.28,0.67
				s0.42,0.28,0.67,0.28s0.49-0.1,0.67-0.28s0.28-0.42,0.28-0.67S37.53,36.1,37.37,35.93z"/>
		</g>
	</g>
	<g>
		<g>
			<path class="st2" d="M40.23,35.93c-0.18-0.18-0.42-0.28-0.67-0.28s-0.49,0.1-0.67,0.28c-0.18,0.18-0.28,0.42-0.28,0.67
				s0.1,0.49,0.28,0.67c0.18,0.18,0.42,0.28,0.67,0.28s0.49-0.1,0.67-0.28c0.18-0.18,0.28-0.42,0.28-0.67S40.41,36.1,40.23,35.93z"
				/>
		</g>
	</g>
	<g>
		<g>
			<path class="st2" d="M37.37,33.06c-0.18-0.18-0.42-0.28-0.67-0.28s-0.49,0.1-0.67,0.28s-0.28,0.42-0.28,0.67s0.1,0.49,0.28,0.67
				c0.18,0.18,0.42,0.28,0.67,0.28s0.49-0.1,0.67-0.28s0.28-0.42,0.28-0.67C37.64,33.48,37.53,33.24,37.37,33.06z"/>
		</g>
	</g>
	<g>
		<g>
			<path class="st2" d="M37.37,38.8c-0.18-0.18-0.42-0.28-0.67-0.28s-0.49,0.1-0.67,0.28s-0.28,0.42-0.28,0.67s0.1,0.49,0.28,0.67
				c0.18,0.18,0.42,0.28,0.67,0.28s0.49-0.1,0.67-0.28s0.28-0.42,0.28-0.67C37.64,39.22,37.53,38.97,37.37,38.8z"/>
		</g>
	</g>
</g>
</svg>
