<?xml version="1.0" encoding="utf-8"?>
<!-- Generator: Adobe Illustrator 23.0.3, SVG Export Plug-In . SVG Version: 6.00 Build 0)  -->
<svg version="1.1" id="Layer_1" xmlns="http://www.w3.org/2000/svg" xmlns:xlink="http://www.w3.org/1999/xlink" x="0px" y="0px"
	 viewBox="0 0 58 47" style="enable-background:new 0 0 58 47;" xml:space="preserve">
<style type="text/css">
	.st0{fill:#217165;}
	.st1{fill:#F04D26;}
	.st2{fill:#4ABEAD;}
</style>
<g>
	<path class="st0" d="M51.71,36.9C51.71,36.9,51.71,36.89,51.71,36.9L41.25,26.43c-0.39-0.39-1.03-0.41-1.44-0.03l-5.69,5.21
		c-2.8-1.63-5.34-3.52-7.52-5.7c-2.21-2.21-4.05-4.76-5.69-7.53l5.2-5.67c0.37-0.41,0.36-1.04-0.03-1.44L15.62,0.8
		c-0.22-0.23-0.53-0.34-0.85-0.31c-0.24,0.03-0.47,0.14-0.64,0.31L7.67,7.42C6.55,8.57,5.99,10.2,5.99,12
		c0,5.86,4.55,14.39,12.34,22.18s16.32,12.34,22.18,12.34c1.8,0,3.43-0.56,4.58-1.68l6.62-6.46C52.12,37.97,52.12,37.31,51.71,36.9z
		 M43.62,43.33c-0.7,0.68-1.74,1.09-3.11,1.09c-4.7,0-13.18-4.19-20.71-11.72c-7.52-7.52-11.72-16-11.72-20.71
		c0-1.37,0.41-2.41,1.1-3.11l5.72-5.87l9.01,9.01l-5.08,5.54c-0.31,0.33-0.37,0.83-0.15,1.23c1.81,3.17,3.93,6.05,6.46,8.58
		c2.5,2.5,5.38,4.66,8.6,6.46c0.39,0.22,0.88,0.16,1.21-0.15l5.54-5.08l9.01,9.01L43.62,43.33z"/>
	<path class="st1" d="M29.34,13.04c-0.58,0.03-1.02,0.52-1,1.1c0.03,0.58,0.52,1.02,1.1,1h13.6c0.58,0.01,1.05-0.45,1.06-1.03
		c0.01-0.58-0.45-1.05-1.03-1.06c-0.01,0-0.02,0-0.03,0h-13.6C29.4,13.04,29.37,13.04,29.34,13.04z"/>
	<path class="st1" d="M29.55,16.3c-0.7,0.03-1.24,0.63-1.21,1.33s0.63,1.24,1.33,1.21h8.87c0.7,0.01,1.27-0.55,1.28-1.25
		s-0.55-1.27-1.25-1.28c-0.01,0-0.02,0-0.04,0h-8.87C29.63,16.3,29.59,16.3,29.55,16.3z"/>
</g>
<path class="st2" d="M43.83,43.11c-0.7,0.68-1.74,1.09-3.11,1.09c-4.7,0-13.18-4.19-20.71-11.72c-7.52-7.52-11.72-16-11.72-20.71
	c0-1.37,0.41-2.41,1.1-3.11l5.72-5.87l9.01,9.01l-5.08,5.54c-0.31,0.33-0.37,0.83-0.15,1.23c1.81,3.17,3.93,6.05,6.46,8.58
	c2.5,2.5,5.38,4.66,8.6,6.46c0.39,0.22,0.88,0.16,1.21-0.15l5.54-5.08l9.01,9.01L43.83,43.11z"/>
</svg>
