<?xml version="1.0" encoding="utf-8"?>
<!-- Generator: Adobe Illustrator 23.0.3, SVG Export Plug-In . SVG Version: 6.00 Build 0)  -->
<svg version="1.1" id="Layer_1" xmlns="http://www.w3.org/2000/svg" xmlns:xlink="http://www.w3.org/1999/xlink" x="0px" y="0px"
	 viewBox="0 0 70 80" style="enable-background:new 0 0 70 80;" xml:space="preserve">
<style type="text/css">
	.st0{fill:#4DFDD9;}
	.st1{opacity:0.1;}
	.st2{fill:#030303;}
</style>
<g>
	<path class="st0" d="M67.02,35.57c0,17.61-14.41,32.02-32.02,32.02c-2.52,0-4.8-0.23-7.09-0.91L13.04,76.74l2.29-15.78
		C7.78,55.01,2.98,45.86,2.98,35.57C2.98,17.96,17.39,3.55,35,3.55S67.02,17.96,67.02,35.57z"/>
	<g class="st1">
		<path class="st2" d="M66.33,29.16c-5.72-5.03-13.04-8.01-21.27-8.01c-17.61,0.01-32.02,14.42-32.02,32.03
			c0,2.29,0.23,4.35,0.69,6.4C7.09,53.64,2.98,45.17,2.98,35.8C2.98,18.19,17.39,3.78,35,3.78C50.55,3.55,63.36,14.53,66.33,29.16z"
			/>
	</g>
	<path d="M11.9,78.57c-0.69-0.46-1.14-1.37-1.14-2.29l2.28-14.64C5.26,55.01,0.69,45.63,0.69,35.34C0.69,16.36,16.01,1.03,35,1.03
		s34.31,15.32,34.31,34.31S53.98,69.65,35,69.65c-2.29,0-4.57-0.23-6.63-0.69l-13.95,9.38C13.5,79.02,12.58,79.25,11.9,78.57z
		 M35,5.83C18.53,5.83,5.27,19.1,5.27,35.56c0,9.15,4.12,17.84,11.44,23.56c0.69,0.46,0.91,1.37,0.91,2.06l-1.6,10.75l10.52-7.09
		c0.46-0.46,1.14-0.46,1.83-0.23c2.29,0.46,4.35,0.69,6.63,0.69c16.47,0,29.73-13.27,29.73-29.73S51.46,5.83,35,5.83z"/>
	<path d="M35,47.92c-1.37,0-2.29-0.91-2.29-2.29v-7.55c0-1.37,0.91-2.29,2.29-2.29c3.2,0,5.72-2.52,5.72-5.72S38.2,24.35,35,24.35
		s-5.72,2.52-5.72,5.72c0,1.37-0.91,2.29-2.29,2.29c-1.37,0-2.29-0.91-2.29-2.29c0-5.72,4.57-10.29,10.29-10.29
		s10.29,4.57,10.29,10.29c0,4.8-3.43,8.92-8.01,10.06v5.49C37.28,46.78,36.37,47.92,35,47.92z"/>
	<path d="M33.4,53.87c-0.91-0.91-0.91-2.52,0-3.2c0.91-0.91,2.29-0.91,3.2,0s0.91,2.29,0,3.2C35.68,55.01,34.31,54.78,33.4,53.87z"
		/>
</g>
</svg>
