<?xml version="1.0" encoding="utf-8"?>
<!-- Generator: Adobe Illustrator 23.0.3, SVG Export Plug-In . SVG Version: 6.00 Build 0)  -->
<svg version="1.1" id="Layer_1" xmlns="http://www.w3.org/2000/svg" xmlns:xlink="http://www.w3.org/1999/xlink" x="0px" y="0px"
	 viewBox="0 0 51.66 47.06" style="enable-background:new 0 0 51.66 47.06;" xml:space="preserve">
<style type="text/css">
	.st0{fill:#F04D26;}
	.st1{fill:#FFFFFF;}
</style>
<g>
	<path class="st1" d="M35.48,31.79l-5.99-6.51c0.76-1.19,1.22-2.6,1.22-4.11c0-4.22-3.42-7.65-7.65-7.65s-7.65,3.42-7.65,7.65
		s3.43,7.65,7.65,7.65c1.52,0,2.92-0.46,4.11-1.22l5.99,6.51c0.64,0.64,1.68,0.64,2.32,0C36.12,33.47,36.12,32.43,35.48,31.79z
		 M23.06,26.63c-3.02,0-5.46-2.45-5.46-5.46c0-3.02,2.45-5.46,5.46-5.46c3.02,0,5.46,2.45,5.46,5.46
		C28.52,24.19,26.07,26.63,23.06,26.63z"/>
</g>
</svg>
