<?xml version="1.0" encoding="utf-8"?>
<!-- Generator: Adobe Illustrator 23.0.3, SVG Export Plug-In . SVG Version: 6.00 Build 0)  -->
<svg version="1.1" id="Layer_1" xmlns="http://www.w3.org/2000/svg" xmlns:xlink="http://www.w3.org/1999/xlink" x="0px" y="0px"
	 viewBox="0 0 60 49" style="enable-background:new 0 0 60 49;" xml:space="preserve">
<style type="text/css">
	.st0{fill:#B7E5DE;}
	.st1{fill:#F04D26;}
	.st2{fill:#4ABEAD;}
</style>
<g>
	<path class="st0" d="M21.9,2.13l-0.06-0.01c-5.01,0.56-9.33,3.77-11.3,8.41L7.79,17l-1.28,3.01l3.03,0.82l1.35-2.99l-0.59-0.16
		l3.29-7.15c1.55-3.65,4.59-6.47,8.34-7.75c-0.02-0.09-0.03-0.17-0.05-0.26C21.87,2.39,21.87,2.26,21.9,2.13L21.9,2.13z"/>
	<path class="st0" d="M15.35,19.5v28.39h3.05V23.42C18.4,21.57,17.15,19.96,15.35,19.5z"/>
	<path class="st1" d="M40.99,16.26h-7.22c-0.34,0-0.61,0.27-0.61,0.61v4.88c0,0.88,0.46,1.7,1.21,2.16l2.69,1.65
		c0.2,0.12,0.44,0.12,0.64,0l2.69-1.65c0.75-0.46,1.21-1.28,1.21-2.16v-4.88C41.61,16.53,41.33,16.26,40.99,16.26L40.99,16.26z
		 M40.38,21.75c0,0.46-0.24,0.88-0.63,1.12l-2.37,1.46l-2.37-1.46c-0.39-0.24-0.63-0.67-0.63-1.12v-4.27h5.99L40.38,21.75
		L40.38,21.75z"/>
	<g>
		<path class="st2" d="M50.02,10.29c-2.05-4.83-6.55-8.18-11.77-8.77c-0.34-0.03-0.64,0.21-0.67,0.55c-0.03,0.33,0.2,0.63,0.53,0.67
			c4.78,0.54,8.9,3.61,10.78,8.04l2.48,5.83l-6.11,1.67v-3.59c0-0.34-0.27-0.61-0.61-0.61s-0.61,0.27-0.61,0.61v26.95H15.96V14.68
			c0-0.34-0.27-0.61-0.61-0.61c-0.34,0-0.61,0.27-0.61,0.61v3.57l-6.11-1.66l2.47-5.82c1.89-4.43,6.01-7.51,10.8-8.04
			c0.33-0.04,0.57-0.34,0.53-0.68c-0.04-0.33-0.34-0.57-0.67-0.53c-5.21,0.58-9.72,3.93-11.78,8.77l-4.03,9.48
			c-0.13,0.31,0.01,0.67,0.32,0.8c0.03,0.01,0.05,0.02,0.08,0.03l8.38,2.27v25.02c0,0.34,0.27,0.61,0.61,0.61h29.3
			c0.34,0,0.61-0.27,0.61-0.61v-25l8.39-2.3c0.33-0.09,0.52-0.42,0.43-0.75c-0.01-0.03-0.02-0.05-0.03-0.08L50.02,10.29z M7.35,19.6
			l0.8-1.87l6.59,1.79v2.09L7.35,19.6z M15.96,47.29v-4.43h28.08v4.43H15.96z M45.26,21.63v-2.09l6.59-1.81l0.8,1.87L45.26,21.63z"
			/>
		<path class="st2" d="M20.67,25.54c0-0.34-0.27-0.61-0.61-0.61s-0.61,0.27-0.61,0.61v0.71c0,0.34,0.27,0.61,0.61,0.61
			c0.34,0,0.61-0.27,0.61-0.61V25.54z"/>
		<path class="st2" d="M20.06,27.48c-0.34,0-0.61,0.27-0.61,0.61v6.26c0,0.34,0.27,0.61,0.61,0.61s0.61-0.27,0.61-0.61v-6.26
			C20.67,27.75,20.4,27.48,20.06,27.48z"/>
	</g>
	<path class="st1" d="M38.71,2.62c0.15-1-0.53-1.93-1.53-2.09c-0.99-0.15-1.91,0.51-2.08,1.5c-0.18,1.12-0.69,2.16-1.48,2.98
		c-1.84,2-4.96,2.13-6.96,0.28c-0.09-0.09-0.19-0.18-0.28-0.28c-0.79-0.82-1.3-1.86-1.48-2.98c-0.14-0.88-0.91-1.53-1.8-1.52
		c-1.01,0-1.83,0.82-1.83,1.83c0,0.1,0.01,0.19,0.02,0.29c0.33,2.1,1.38,4.02,2.97,5.43c3.27,2.93,8.22,2.93,11.49,0
		C37.33,6.64,38.38,4.72,38.71,2.62L38.71,2.62z M34.94,7.14c-2.8,2.52-7.06,2.52-9.87,0c-1.37-1.23-2.28-2.89-2.57-4.71
		c-0.03-0.18,0.02-0.35,0.13-0.49c0.12-0.14,0.29-0.22,0.47-0.22c0.29,0,0.55,0.21,0.6,0.5c0.22,1.37,0.85,2.63,1.8,3.63
		c2.31,2.49,6.2,2.63,8.68,0.32c0.11-0.1,0.22-0.21,0.32-0.32c0.96-1,1.59-2.26,1.8-3.63c0.05-0.29,0.31-0.5,0.6-0.5
		c0.18,0,0.35,0.08,0.47,0.22c0.11,0.13,0.17,0.31,0.14,0.48C37.22,4.25,36.31,5.91,34.94,7.14z"/>
</g>
</svg>
