<?xml version="1.0" encoding="utf-8"?>
<!-- Generator: Adobe Illustrator 23.0.3, SVG Export Plug-In . SVG Version: 6.00 Build 0)  -->
<svg version="1.1" id="Layer_1" xmlns="http://www.w3.org/2000/svg" xmlns:xlink="http://www.w3.org/1999/xlink" x="0px" y="0px"
	 viewBox="0 0 60 46" style="enable-background:new 0 0 60 46;" xml:space="preserve">
<style type="text/css">
	.st0{fill:#4DFDD9;}
	.st1{fill:#CCCCCC;}
</style>
<g>
	<path class="st0" d="M8.07,21.37l1.04-1.29c0.53-0.66,0.71-1.55,0.47-2.36l-0.46-1.59c-0.34-1.18,0.18-2.43,1.25-3.02l1.45-0.8
		c0.75-0.41,1.25-1.16,1.34-2.01l0.18-1.65c0.13-1.22,1.09-2.18,2.31-2.31l1.65-0.18c0.85-0.09,1.6-0.59,2.01-1.34l0.8-1.45
		c0.59-1.07,1.85-1.6,3.02-1.25l1.59,0.46c0.82,0.24,1.7,0.06,2.36-0.47l1.29-1.04c0.95-0.76,2.31-0.76,3.27,0l1.29,1.04
		c0.66,0.53,1.55,0.71,2.36,0.47l1.59-0.46c1.18-0.34,2.43,0.18,3.02,1.25l0.8,1.45c0.41,0.75,1.16,1.25,2.01,1.34l1.65,0.18
		c1.22,0.13,2.18,1.09,2.31,2.31l0.18,1.65c0.09,0.85,0.59,1.6,1.34,2.01l1.45,0.8c1.08,0.59,1.6,1.85,1.25,3.02l-0.46,1.59
		c-0.24,0.82-0.06,1.7,0.47,2.36l1.04,1.29c0.76,0.95,0.76,2.31,0,3.27l-1.04,1.29c-0.53,0.66-0.71,1.55-0.47,2.36l0.46,1.59
		c0.34,1.18-0.18,2.43-1.25,3.02l-1.45,0.8c-0.75,0.41-1.25,1.16-1.34,2.01l-0.18,1.65c-0.13,1.22-1.09,2.18-2.31,2.31l-1.65,0.18
		c-0.85,0.09-1.6,0.59-2.01,1.34l-0.8,1.45c-0.59,1.08-1.85,1.6-3.02,1.25l-1.59-0.46c-0.82-0.24-1.7-0.06-2.36,0.47l-1.29,1.04
		c-0.95,0.76-2.31,0.76-3.27,0l-1.29-1.04c-0.66-0.53-1.55-0.71-2.36-0.47l-1.59,0.46c-1.18,0.34-2.43-0.18-3.02-1.25l-0.8-1.45
		c-0.41-0.75-1.16-1.25-2.01-1.34l-1.65-0.18c-1.22-0.13-2.18-1.09-2.31-2.31l-0.18-1.65c-0.09-0.85-0.59-1.6-1.34-2.01l-1.45-0.79
		c-1.07-0.59-1.6-1.85-1.25-3.02l0.46-1.59c0.24-0.82,0.06-1.7-0.47-2.36l-1.04-1.3C7.31,23.68,7.31,22.32,8.07,21.37L8.07,21.37z"
		/>
	<circle class="st1" cx="30" cy="23" r="16.6"/>
	<path d="M27.66,31.29l-9.34-9.34l2.56-2.56l6.79,6.79l11.46-11.46l2.56,2.56L27.66,31.29z"/>
</g>
</svg>
