<?xml version="1.0" encoding="utf-8"?>
<!-- Generator: Adobe Illustrator 23.0.3, SVG Export Plug-In . SVG Version: 6.00 Build 0)  -->
<svg version="1.1" id="Layer_1" xmlns="http://www.w3.org/2000/svg" xmlns:xlink="http://www.w3.org/1999/xlink" x="0px" y="0px"
	 viewBox="0 0 60 46" style="enable-background:new 0 0 60 46;" xml:space="preserve">
<style type="text/css">
	.st0{fill:#4DFDD9;}
	.st1{fill:#404040;}
	.st2{fill:#F2F2F2;}
	.st3{opacity:0.5;fill:#4ABEAD;enable-background:new    ;}
</style>
<g>
	<g>
		<path class="st0" d="M13.52,6.24h-1.89H2.46c-0.8,0-1.45,0.64-1.45,1.44s0.65,1.45,1.45,1.45H5.1c0.8,0,1.45,0.65,1.45,1.45
			S5.9,12.03,5.1,12.03H4.97c-0.8,0-1.45,0.65-1.45,1.45s0.65,1.45,1.45,1.45h2.64c0.8,0,1.45,0.65,1.45,1.45
			c0,0.8-0.65,1.45-1.45,1.45H7.49c-0.8,0-1.45,0.65-1.45,1.45c0,0.8,0.65,1.45,1.45,1.45h0.12c0.8,0,1.45,0.65,1.45,1.45
			c0,0.8-0.65,1.45-1.45,1.45h-3.9c-0.8,0-1.45,0.65-1.45,1.45c0,0.8,0.65,1.45,1.45,1.45h2.64c0.8,0,1.45,0.65,1.45,1.45
			c0,0.8-0.65,1.45-1.45,1.45H6.23c-0.8,0-1.45,0.65-1.45,1.45c0,0.8,0.65,1.45,1.45,1.45h5.4h3.15h23.61V6.24H13.52z"/>
		<polygon class="st1" points="58.99,34.67 38.39,34.67 38.39,13.83 52.32,13.83 58.99,23.56 		"/>
		<rect x="6.17" y="32.26" class="st1" width="32.22" height="2.41"/>
		<path class="st2" d="M42.78,16.08V25h1.88c2.39,0,4.23,0.86,5.75,2.38l0,0h5.91v-3.43l-5.47-7.87
			C50.85,16.08,42.78,16.08,42.78,16.08z"/>
		<ellipse class="st1" cx="14.99" cy="34.67" rx="5.09" ry="5.09"/>
		<path class="st2" d="M17.75,34.67c0,1.53-1.24,2.76-2.76,2.76c-1.53,0-2.76-1.24-2.76-2.76c0-1.53,1.24-2.76,2.76-2.76
			S17.75,33.15,17.75,34.67z"/>
		<ellipse class="st1" cx="44.89" cy="34.67" rx="5.09" ry="5.09"/>
		<path class="st2" d="M47.65,34.67c0,1.53-1.24,2.76-2.76,2.76c-1.53,0-2.76-1.24-2.76-2.76c0-1.53,1.24-2.76,2.76-2.76
			C46.42,31.91,47.65,33.15,47.65,34.67z"/>
		<rect x="14.99" y="17.03" class="st3" width="18.67" height="7.23"/>
	</g>
</g>
</svg>
