<?xml version="1.0" encoding="utf-8"?>
<!-- Generator: Adobe Illustrator 23.0.3, SVG Export Plug-In . SVG Version: 6.00 Build 0)  -->
<svg version="1.1" id="Layer_1" xmlns="http://www.w3.org/2000/svg" xmlns:xlink="http://www.w3.org/1999/xlink" x="0px" y="0px"
	 viewBox="0 0 60 49" style="enable-background:new 0 0 60 49;" xml:space="preserve">
<style type="text/css">
	.st0{fill:#B7E5DE;}
	.st1{fill:none;stroke:#4ABEAD;stroke-width:1.4173;stroke-miterlimit:10;}
	.st2{fill:none;stroke:#F04D26;stroke-width:1.4173;stroke-miterlimit:10;}
</style>
<rect x="35.35" y="11.08" class="st0" width="3.13" height="23.07"/>
<rect x="14.84" y="27.25" class="st0" width="3.13" height="11.86"/>
<path class="st1" d="M52.93,37.53H33.28c-0.55,0-1-0.45-1-1V8.69c0-0.55,0.45-1,1-1h19.66c0.55,0,1,0.45,1,1v27.84
	C53.93,37.08,53.49,37.53,52.93,37.53z"/>
<rect x="35.35" y="11.08" class="st1" width="15.5" height="23.07"/>
<path class="st1" d="M28.41,41.82H13.13c-0.55,0-1-0.45-1-1V25.54c0-0.55,0.45-1,1-1h15.28c0.55,0,1,0.45,1,1v15.28
	C29.41,41.37,28.95,41.82,28.41,41.82z"/>
<path class="st2" d="M28.41,20.92h-8.83c-0.55,0-1-0.45-1-1V8.25c0-0.55,0.45-1,1-1h8.83c0.55,0,1,0.45,1,1v11.67
	C29.41,20.48,28.95,20.92,28.41,20.92z"/>
<rect x="14.84" y="27.25" class="st1" width="11.86" height="11.86"/>
</svg>
