<?xml version="1.0" encoding="utf-8"?>
<!-- Generator: Adobe Illustrator 23.0.3, SVG Export Plug-In . SVG Version: 6.00 Build 0)  -->
<svg version="1.1" id="Layer_1" xmlns="http://www.w3.org/2000/svg" xmlns:xlink="http://www.w3.org/1999/xlink" x="0px" y="0px"
	 viewBox="0 0 60 49" style="enable-background:new 0 0 60 49;" xml:space="preserve">
<style type="text/css">
	.st0{fill:#B7E5DE;}
	.st1{fill:#D4E1F4;}
	.st2{fill:#4ABEAD;}
	.st3{fill:#F04D26;}
</style>
<g>
	<g>
		<path class="st0" d="M3.63,1.85v2.04h0.26h2V1.85H3.63z"/>
		<path class="st0" d="M4.57,25.63h2.25v2.69H4.57V25.63z"/>
		<path class="st1" d="M10.28,29.66c-0.02,0-0.05,0-0.07,0H10.28L10.28,29.66z"/>
		<path class="st0" d="M6.14,33.67c0.25-0.06,0.51,0.02,0.68,0.22v-4.22H4.57v17.48h1.01c0.37-1.71,1.41-7.47,0.07-12.65
			C5.56,34.13,5.78,33.76,6.14,33.67z"/>
		<path class="st0" d="M6.82,5.24H4.57v19.03h1.89l0.36-0.89V5.24z"/>
		<path class="st0" d="M24.47,5.24h-2.25c0.71,3.37,3.86,5.75,7.77,5.75c0.38,0,0.76-0.02,1.13-0.07
			C27.74,10.51,25.11,8.28,24.47,5.24L24.47,5.24z"/>
		<path class="st0" d="M51.94,34.46c-0.01-1.57,0.04-3.15,0.17-4.67h-2.25c-0.61,6.89,0.58,15.15,0.93,17.35h1.23
			C51.59,45.08,50.7,39.63,51.94,34.46z"/>
		<path class="st0" d="M45.37,15.62c-1.5-2.83-2.7-6.14-3.76-10.38h-2.25c1.06,4.24,2.26,7.55,3.76,10.38
			c1.93,3.64,4.27,6.47,7.16,8.65h1.51l-0.57-1.07C48.92,21.19,47,18.69,45.37,15.62L45.37,15.62z"/>
		<path class="st0" d="M50.53,25.63c-0.23,0.93-0.4,1.87-0.52,2.81h1.13c0.12-0.95,0.29-1.89,0.52-2.81H50.53z"/>
	</g>
	<path class="st2" d="M34.42,7.17c-0.97,1.01-2.61,1.62-4.39,1.64c-0.02,0-0.04,0-0.06,0c-2.18,0-4.14-0.91-4.89-2.28
		c-0.18-0.33-0.59-0.45-0.92-0.26c-0.32,0.18-0.44,0.58-0.27,0.91c0.99,1.82,3.37,2.98,6.07,2.98h0.07
		c2.14-0.02,4.14-0.78,5.36-2.05c0.26-0.27,0.25-0.7-0.02-0.96C35.11,6.89,34.68,6.9,34.42,7.17z"/>
	<path class="st3" d="M49.12,38.78h-9.95V4.56c0-0.37-0.3-0.68-0.68-0.68c-0.37,0-0.68,0.3-0.68,0.68v34.22h-15.7V4.56
		c0-0.37-0.3-0.68-0.68-0.68c-0.37,0.01-0.67,0.31-0.67,0.68v34.22h-9.8c-0.37,0-0.68,0.3-0.68,0.68s0.3,0.68,0.68,0.68h38.16
		c0.37,0,0.68-0.3,0.68-0.68S49.49,38.78,49.12,38.78L49.12,38.78z"/>
	<path class="st3" d="M30.34,18.39c-0.35-0.14-0.74,0.03-0.88,0.38l-3.35,8.36c-0.14,0.35,0.03,0.74,0.38,0.88
		c0.35,0.14,0.74-0.03,0.88-0.38l3.35-8.36C30.86,18.93,30.69,18.53,30.34,18.39L30.34,18.39z"/>
	<path class="st3" d="M29.83,27.9c0.34,0.14,0.74-0.02,0.88-0.36l0,0l1.7-4.07c0.14-0.34-0.02-0.74-0.36-0.88s-0.74,0.02-0.88,0.36
		l-1.7,4.07C29.32,27.36,29.48,27.75,29.83,27.9L29.83,27.9L29.83,27.9z"/>
	<path class="st2" d="M56.82,0.5H3.18c-0.5,0-0.9,0.4-0.9,0.9v2.94c0,0.5,0.4,0.9,0.9,0.9h0.03v42.35c0,0.5,0.4,0.9,0.9,0.9h5.53
		c0.31,0,0.58-0.21,0.66-0.52c0.61-2.75,1.06-5.54,1.33-8.34c0.59-6.03,0.26-10.89-0.99-14.47c2.55-2.01,4.96-5.02,7-8.73
		c1.59-2.94,2.87-6.04,3.8-9.26c0.51,1.12,1.26,2.12,2.2,2.92c1.69,1.45,3.94,2.25,6.34,2.25c3.9,0,7.16-2.03,8.52-5.01
		c0.97,3.53,2.08,6.41,3.42,8.93c1.95,3.67,4.41,6.68,7.32,8.93c-0.91,3.51-1.14,8.34-0.7,14.38c0.35,4.65,0.99,8.34,1,8.37
		c0.06,0.32,0.34,0.56,0.67,0.56h5.28c0.5,0,0.9-0.4,0.9-0.9V5.24h0.42c0.5,0,0.9-0.4,0.9-0.9V1.4C57.72,0.9,57.31,0.5,56.82,0.5
		L56.82,0.5z M3.63,1.85h52.73v2.04H3.63V1.85z M9.37,25.63c0.3,0.88,0.53,1.77,0.7,2.69h-5.5v-2.69H9.37z M9.1,47.14H6.96
		c0.44-2.1,1.35-7.73,0-12.99c-0.1-0.36-0.47-0.58-0.83-0.48c-0.36,0.09-0.57,0.46-0.48,0.81c1.33,5.19,0.29,10.94-0.07,12.65H4.57
		V29.66h5.64c0.02,0,0.05,0,0.07,0C11.2,36.63,9.56,45,9.1,47.14z M16.46,15.78c-2.01,3.66-4.39,6.6-6.88,8.49H7.92l2.53-6.21v-0.01
		c0.75-1.94,1.35-3.93,1.78-5.96l1.08-4.58c0.09-0.36-0.14-0.73-0.5-0.81C12.45,6.61,12.08,6.84,12,7.2l-1.08,4.59v0.01
		c-0.42,1.96-0.99,3.89-1.72,5.76l-2.74,6.71H4.57V5.24h16C19.64,8.91,18.26,12.45,16.46,15.78z M29.99,10.99
		c-3.91,0-7.06-2.37-7.77-5.75h15.52C37.17,8.56,33.97,10.99,29.99,10.99L29.99,10.99z M55.04,25.63v2.81h-5.03
		c0.12-0.95,0.29-1.89,0.52-2.81H55.04z M53.4,47.14c-0.37-1.71-1.41-7.47-0.07-12.65c0.09-0.36-0.13-0.73-0.49-0.82
		s-0.72,0.13-0.81,0.48c-1.35,5.26-0.44,10.89,0,12.99H50.8c-0.35-2.2-1.54-10.46-0.93-17.35h5.18v17.35H53.4z M55.04,5.24v19.03
		h-1.73l-1.03-1.95c-2.4-4.77-3.91-9.93-4.46-15.24c-0.04-0.37-0.37-0.64-0.74-0.6c-0.37,0.04-0.64,0.37-0.6,0.74
		c0.57,5.47,2.13,10.8,4.6,15.71l0.71,1.34h-1.51c-2.89-2.18-5.23-5.01-7.16-8.65c-1.5-2.83-2.7-6.14-3.76-10.38L55.04,5.24z"/>
</g>
</svg>
